<?xml version="1.0" encoding="UTF-8"?>
<!DOCTYPE svg PUBLIC "-//W3C//DTD SVG 1.1//EN" "http://www.w3.org/Graphics/SVG/1.1/DTD/svg11.dtd">
<svg version="1.2" width="28.19mm" height="19.05mm" viewBox="0 0 2819 1905" preserveAspectRatio="xMidYMid" fill-rule="evenodd" stroke-width="28.222" stroke-linejoin="round" xmlns="http://www.w3.org/2000/svg" xmlns:ooo="http://xml.openoffice.org/svg/export" xmlns:xlink="http://www.w3.org/1999/xlink" xmlns:presentation="http://sun.com/xmlns/staroffice/presentation" xmlns:smil="http://www.w3.org/2001/SMIL20/" xmlns:anim="urn:oasis:names:tc:opendocument:xmlns:animation:1.0" xml:space="preserve">
 <defs class="ClipPathGroup">
  <clipPath id="presentation_clip_path" clipPathUnits="userSpaceOnUse">
   <rect x="0" y="0" width="2819" height="1905"/>
  </clipPath>
  <clipPath id="presentation_clip_path_shrink" clipPathUnits="userSpaceOnUse">
   <rect x="2" y="1" width="2814" height="1902"/>
  </clipPath>
 </defs>
 <defs class="TextShapeIndex">
  <g ooo:slide="id1" ooo:id-list="id3"/>
 </defs>
 <defs class="EmbeddedBulletChars">
  <g id="bullet-char-template-57356" transform="scale(0.00048828125,-0.00048828125)">
   <path d="M 580,1141 L 1163,571 580,0 -4,571 580,1141 Z"/>
  </g>
  <g id="bullet-char-template-57354" transform="scale(0.00048828125,-0.00048828125)">
   <path d="M 8,1128 L 1137,1128 1137,0 8,0 8,1128 Z"/>
  </g>
  <g id="bullet-char-template-10146" transform="scale(0.00048828125,-0.00048828125)">
   <path d="M 174,0 L 602,739 174,1481 1456,739 174,0 Z M 1358,739 L 309,1346 659,739 1358,739 Z"/>
  </g>
  <g id="bullet-char-template-10132" transform="scale(0.00048828125,-0.00048828125)">
   <path d="M 2015,739 L 1276,0 717,0 1260,543 174,543 174,936 1260,936 717,1481 1274,1481 2015,739 Z"/>
  </g>
  <g id="bullet-char-template-10007" transform="scale(0.00048828125,-0.00048828125)">
   <path d="M 0,-2 C -7,14 -16,27 -25,37 L 356,567 C 262,823 215,952 215,954 215,979 228,992 255,992 264,992 276,990 289,987 310,991 331,999 354,1012 L 381,999 492,748 772,1049 836,1024 860,1049 C 881,1039 901,1025 922,1006 886,937 835,863 770,784 769,783 710,716 594,584 L 774,223 C 774,196 753,168 711,139 L 727,119 C 717,90 699,76 672,76 641,76 570,178 457,381 L 164,-76 C 142,-110 111,-127 72,-127 30,-127 9,-110 8,-76 1,-67 -2,-52 -2,-32 -2,-23 -1,-13 0,-2 Z"/>
  </g>
  <g id="bullet-char-template-10004" transform="scale(0.00048828125,-0.00048828125)">
   <path d="M 285,-33 C 182,-33 111,30 74,156 52,228 41,333 41,471 41,549 55,616 82,672 116,743 169,778 240,778 293,778 328,747 346,684 L 369,508 C 377,444 397,411 428,410 L 1163,1116 C 1174,1127 1196,1133 1229,1133 1271,1133 1292,1118 1292,1087 L 1292,965 C 1292,929 1282,901 1262,881 L 442,47 C 390,-6 338,-33 285,-33 Z"/>
  </g>
  <g id="bullet-char-template-9679" transform="scale(0.00048828125,-0.00048828125)">
   <path d="M 813,0 C 632,0 489,54 383,161 276,268 223,411 223,592 223,773 276,916 383,1023 489,1130 632,1184 813,1184 992,1184 1136,1130 1245,1023 1353,916 1407,772 1407,592 1407,412 1353,268 1245,161 1136,54 992,0 813,0 Z"/>
  </g>
  <g id="bullet-char-template-8226" transform="scale(0.00048828125,-0.00048828125)">
   <path d="M 346,457 C 273,457 209,483 155,535 101,586 74,649 74,723 74,796 101,859 155,911 209,963 273,989 346,989 419,989 480,963 531,910 582,859 608,796 608,723 608,648 583,586 532,535 482,483 420,457 346,457 Z"/>
  </g>
  <g id="bullet-char-template-8211" transform="scale(0.00048828125,-0.00048828125)">
   <path d="M -4,459 L 1135,459 1135,606 -4,606 -4,459 Z"/>
  </g>
  <g id="bullet-char-template-61548" transform="scale(0.00048828125,-0.00048828125)">
   <path d="M 173,740 C 173,903 231,1043 346,1159 462,1274 601,1332 765,1332 928,1332 1067,1274 1183,1159 1299,1043 1357,903 1357,740 1357,577 1299,437 1183,322 1067,206 928,148 765,148 601,148 462,206 346,322 231,437 173,577 173,740 Z"/>
  </g>
 </defs>
 <g>
  <g id="id2" class="Master_Slide">
   <g id="bg-id2" class="Background"/>
   <g id="bo-id2" class="BackgroundObjects"/>
  </g>
 </g>
 <g class="SlideGroup">
  <g>
   <g id="container-id1">
    <g id="id1" class="Slide" clip-path="url(#presentation_clip_path)">
     <g class="Page">
      <g class="Graphic">
       <g id="id3">
        <rect class="BoundingBox" stroke="none" fill="none" x="0" y="0" width="2809" height="1905"/>
        <defs>
         <clipPath id="clip_path_1" clipPathUnits="userSpaceOnUse">
          <path d="M 0,0 L 2808,0 2808,1904 0,1904 0,0 Z"/>
         </clipPath>
        </defs>
        <g clip-path="url(#clip_path_1)">
         <path fill="rgb(35,31,32)" stroke="none" d="M 161,1739 L 125,1739 125,1724 213,1724 213,1739 177,1739 177,1853 161,1853 161,1739 Z"/>
         <path fill="none" stroke="rgb(35,31,32)" stroke-width="1" stroke-linejoin="miter" d="M 161,1853 L 161,1739 125,1739 125,1724 213,1724 213,1739 177,1739 177,1853 161,1853 161,1853 161,1853 Z"/>
         <path fill="rgb(35,31,32)" stroke="none" d="M 343,1724 L 411,1724 411,1738 358,1738 358,1775 411,1775 411,1789 358,1789 358,1838 411,1838 411,1853 343,1853 343,1724 Z"/>
         <path fill="none" stroke="rgb(35,31,32)" stroke-width="1" stroke-linejoin="miter" d="M 343,1853 L 343,1724 411,1724 411,1738 358,1738 358,1775 411,1775 411,1789 358,1789 358,1838 411,1838 411,1853 343,1853 343,1853 Z"/>
         <path fill="rgb(35,31,32)" stroke="none" d="M 634,1740 C 627,1737 619,1735 611,1735 604,1735 598,1736 591,1739 585,1742 579,1746 574,1751 569,1756 566,1761 563,1768 561,1774 560,1781 560,1789 560,1795 560,1800 562,1805 563,1810 565,1815 568,1819 574,1826 580,1832 587,1836 595,1840 603,1842 612,1842 620,1842 627,1840 634,1837 641,1833 648,1828 654,1822 L 654,1842 C 647,1847 640,1850 633,1853 626,1855 618,1856 610,1856 604,1856 597,1855 591,1853 584,1851 578,1848 573,1844 563,1838 556,1830 551,1820 546,1811 544,1800 544,1789 544,1779 545,1770 549,1762 552,1754 557,1746 564,1740 570,1733 578,1729 586,1726 593,1722 602,1721 612,1721 619,1721 626,1722 633,1724 640,1726 647,1730 654,1735 L 654,1755 654,1755 C 648,1748 641,1743 634,1740 Z"/>
         <path fill="none" stroke="rgb(35,31,32)" stroke-width="1" stroke-linejoin="miter" d="M 654,1755 C 648,1748 641,1743 634,1740 627,1737 619,1735 611,1735 604,1735 598,1736 591,1739 585,1742 579,1746 574,1751 569,1756 566,1761 563,1768 561,1774 560,1781 560,1789 560,1795 560,1800 562,1805 563,1810 565,1815 568,1819 574,1826 580,1832 587,1836 595,1840 603,1842 612,1842 620,1842 627,1840 634,1837 641,1833 648,1828 654,1822 L 654,1842 C 647,1847 640,1850 633,1853 626,1855 618,1856 610,1856 604,1856 597,1855 591,1853 584,1851 578,1848 573,1844 563,1838 556,1830 551,1820 546,1811 544,1800 544,1789 544,1779 545,1770 549,1762 552,1754 557,1746 564,1740 570,1733 578,1729 586,1726 593,1722 602,1721 612,1721 619,1721 626,1722 633,1724 640,1726 647,1730 654,1735 L 654,1755 654,1755 654,1755 Z"/>
         <path fill="rgb(35,31,32)" stroke="none" d="M 793,1853 L 793,1724 808,1724 808,1773 876,1773 876,1724 892,1724 892,1853 876,1853 876,1788 808,1788 808,1853 793,1853 793,1853 Z"/>
         <path fill="none" stroke="rgb(35,31,32)" stroke-width="1" stroke-linejoin="miter" d="M 793,1853 L 793,1724 808,1724 808,1773 876,1773 876,1724 892,1724 892,1853 876,1853 876,1788 808,1788 808,1853 793,1853 793,1853 Z"/>
         <path fill="rgb(35,31,32)" stroke="none" d="M 1035,1719 L 1129,1822 1129,1724 1144,1724 1144,1858 1050,1756 1050,1853 1035,1853 1035,1719 Z"/>
         <path fill="none" stroke="rgb(35,31,32)" stroke-width="1" stroke-linejoin="miter" d="M 1035,1853 L 1035,1719 1129,1822 1129,1724 1144,1724 1144,1858 1050,1756 1050,1853 1035,1853 1035,1853 Z"/>
         <path fill="rgb(35,31,32)" stroke="none" d="M 1419,1789 C 1419,1798 1417,1806 1414,1815 1410,1823 1406,1830 1399,1836 1393,1843 1385,1848 1377,1851 1368,1854 1359,1856 1350,1856 1341,1856 1333,1854 1324,1851 1316,1848 1308,1843 1302,1836 1295,1830 1290,1823 1287,1814 1283,1806 1282,1798 1282,1789 1282,1779 1283,1771 1287,1762 1290,1754 1295,1747 1302,1741 1308,1734 1316,1730 1324,1726 1332,1723 1341,1721 1350,1721 1359,1721 1368,1723 1377,1726 1385,1729 1393,1734 1399,1741 1405,1747 1410,1754 1414,1762 1417,1771 1419,1779 1419,1789 L 1419,1789 Z M 1350,1842 C 1357,1842 1364,1840 1370,1838 1377,1835 1382,1831 1388,1826 1393,1821 1396,1815 1399,1809 1402,1803 1403,1796 1403,1789 1403,1781 1402,1775 1399,1768 1396,1761 1393,1756 1388,1751 1383,1746 1377,1742 1370,1739 1364,1737 1357,1735 1350,1735 1343,1735 1336,1737 1330,1739 1324,1742 1318,1746 1313,1751 1308,1756 1304,1762 1302,1768 1299,1775 1298,1781 1298,1789 1298,1796 1299,1802 1302,1809 1304,1815 1308,1821 1313,1826 1318,1831 1324,1835 1330,1838 1337,1840 1343,1842 1350,1842 L 1350,1842 Z"/>
         <path fill="none" stroke="rgb(35,31,32)" stroke-width="1" stroke-linejoin="miter" d="M 1419,1789 C 1419,1798 1417,1806 1414,1815 1410,1823 1406,1830 1399,1836 1393,1843 1385,1848 1377,1851 1368,1854 1359,1856 1350,1856 1341,1856 1333,1854 1324,1851 1316,1848 1308,1843 1302,1836 1295,1830 1290,1823 1287,1814 1283,1806 1282,1798 1282,1789 1282,1779 1283,1771 1287,1762 1290,1754 1295,1747 1302,1741 1308,1734 1316,1730 1324,1726 1332,1723 1341,1721 1350,1721 1359,1721 1368,1723 1377,1726 1385,1729 1393,1734 1399,1741 1405,1747 1410,1754 1414,1762 1417,1771 1419,1779 1419,1789 Z"/>
         <path fill="none" stroke="rgb(35,31,32)" stroke-width="1" stroke-linejoin="miter" d="M 1350,1842 C 1357,1842 1364,1840 1370,1838 1377,1835 1382,1831 1388,1826 1393,1821 1396,1815 1399,1809 1402,1803 1403,1796 1403,1789 1403,1781 1402,1775 1399,1768 1396,1761 1393,1756 1388,1751 1383,1746 1377,1742 1370,1739 1364,1737 1357,1735 1350,1735 1343,1735 1336,1737 1330,1739 1324,1742 1318,1746 1313,1751 1308,1756 1304,1762 1302,1768 1299,1775 1298,1781 1298,1789 1298,1796 1299,1802 1302,1809 1304,1815 1308,1821 1313,1826 1318,1831 1324,1835 1330,1838 1337,1840 1343,1842 1350,1842 Z"/>
         <path fill="rgb(35,31,32)" stroke="none" d="M 1557,1724 L 1572,1724 1572,1838 1621,1838 1621,1853 1557,1853 1557,1724 Z"/>
         <path fill="none" stroke="rgb(35,31,32)" stroke-width="1" stroke-linejoin="miter" d="M 1557,1853 L 1557,1724 1572,1724 1572,1838 1621,1838 1621,1853 1557,1853 1557,1853 Z"/>
         <path fill="rgb(35,31,32)" stroke="none" d="M 1877,1789 C 1877,1798 1875,1806 1872,1815 1868,1823 1863,1830 1857,1836 1850,1843 1843,1848 1834,1851 1826,1854 1817,1856 1808,1856 1799,1856 1790,1854 1782,1851 1774,1848 1766,1843 1760,1836 1753,1830 1748,1823 1745,1814 1741,1806 1740,1798 1740,1789 1740,1779 1741,1771 1745,1762 1748,1754 1753,1747 1760,1741 1766,1734 1774,1730 1782,1726 1790,1723 1799,1721 1808,1721 1817,1721 1826,1723 1835,1726 1843,1729 1850,1734 1857,1741 1863,1747 1868,1754 1872,1762 1875,1771 1877,1779 1877,1789 L 1877,1789 Z M 1808,1842 C 1815,1842 1822,1840 1828,1838 1835,1835 1840,1831 1845,1826 1850,1821 1854,1815 1857,1809 1859,1803 1861,1796 1861,1789 1861,1781 1859,1775 1857,1768 1854,1761 1850,1756 1845,1751 1840,1746 1835,1742 1828,1739 1822,1737 1815,1735 1808,1735 1801,1735 1794,1737 1788,1739 1781,1742 1776,1746 1771,1751 1766,1756 1762,1762 1759,1768 1757,1775 1755,1781 1755,1789 1755,1796 1757,1802 1759,1809 1762,1815 1766,1821 1771,1826 1776,1831 1782,1835 1788,1838 1794,1840 1801,1842 1808,1842 L 1808,1842 Z"/>
         <path fill="none" stroke="rgb(35,31,32)" stroke-width="1" stroke-linejoin="miter" d="M 1877,1789 C 1877,1798 1875,1806 1872,1815 1868,1823 1863,1830 1857,1836 1850,1843 1843,1848 1834,1851 1826,1854 1817,1856 1808,1856 1799,1856 1790,1854 1782,1851 1774,1848 1766,1843 1760,1836 1753,1830 1748,1823 1745,1814 1741,1806 1740,1798 1740,1789 1740,1779 1741,1771 1745,1762 1748,1754 1753,1747 1760,1741 1766,1734 1774,1730 1782,1726 1790,1723 1799,1721 1808,1721 1817,1721 1826,1723 1835,1726 1843,1729 1850,1734 1857,1741 1863,1747 1868,1754 1872,1762 1875,1771 1877,1779 1877,1789 Z"/>
         <path fill="none" stroke="rgb(35,31,32)" stroke-width="1" stroke-linejoin="miter" d="M 1808,1842 C 1815,1842 1822,1840 1828,1838 1835,1835 1840,1831 1845,1826 1850,1821 1854,1815 1857,1809 1859,1803 1861,1796 1861,1789 1861,1781 1859,1775 1857,1768 1854,1761 1850,1756 1845,1751 1840,1746 1835,1742 1828,1739 1822,1737 1815,1735 1808,1735 1801,1735 1794,1737 1788,1739 1781,1742 1776,1746 1771,1751 1766,1756 1762,1762 1759,1768 1757,1775 1755,1781 1755,1789 1755,1796 1757,1802 1759,1809 1762,1815 1766,1821 1771,1826 1776,1831 1782,1835 1788,1838 1794,1840 1801,1842 1808,1842 Z"/>
         <path fill="rgb(35,31,32)" stroke="none" d="M 2085,1786 L 2138,1786 2138,1790 C 2138,1811 2132,1827 2121,1838 2110,1850 2094,1856 2074,1856 2068,1856 2062,1856 2057,1854 2051,1853 2046,1851 2042,1849 2031,1843 2023,1835 2017,1825 2012,1814 2009,1803 2009,1790 2009,1779 2011,1769 2014,1761 2017,1752 2023,1744 2029,1738 2035,1732 2042,1728 2050,1725 2057,1722 2066,1721 2075,1721 2087,1721 2098,1723 2107,1728 2116,1732 2124,1739 2130,1748 L 2117,1758 C 2112,1751 2106,1745 2100,1741 2093,1737 2085,1735 2076,1735 2061,1735 2049,1740 2039,1750 2030,1760 2025,1773 2025,1790 2025,1805 2030,1818 2039,1827 2049,1837 2061,1842 2076,1842 2088,1842 2099,1838 2108,1831 2116,1823 2121,1813 2122,1800 L 2085,1800 2085,1786 2085,1786 Z"/>
         <path fill="none" stroke="rgb(35,31,32)" stroke-width="1" stroke-linejoin="miter" d="M 2085,1786 L 2138,1786 2138,1790 C 2138,1811 2132,1827 2121,1838 2110,1850 2094,1856 2074,1856 2068,1856 2062,1856 2057,1854 2051,1853 2046,1851 2042,1849 2031,1843 2023,1835 2017,1825 2012,1814 2009,1803 2009,1790 2009,1779 2011,1769 2014,1761 2017,1752 2023,1744 2029,1738 2035,1732 2042,1728 2050,1725 2057,1722 2066,1721 2075,1721 2087,1721 2098,1723 2107,1728 2116,1732 2124,1739 2130,1748 L 2117,1758 C 2112,1751 2106,1745 2100,1741 2093,1737 2085,1735 2076,1735 2061,1735 2049,1740 2039,1750 2030,1760 2025,1773 2025,1790 2025,1805 2030,1818 2039,1827 2049,1837 2061,1842 2076,1842 2088,1842 2099,1838 2108,1831 2116,1823 2121,1813 2122,1800 L 2085,1800 2085,1786 Z"/>
         <path fill="rgb(35,31,32)" stroke="none" d="M 2274,1853 L 2274,1724 2289,1724 2289,1853 2274,1853 2274,1853 Z"/>
         <path fill="none" stroke="rgb(35,31,32)" stroke-width="1" stroke-linejoin="miter" d="M 2274,1853 L 2274,1724 2289,1724 2289,1853 2274,1853 2274,1853 Z"/>
         <path fill="rgb(35,31,32)" stroke="none" d="M 2433,1724 L 2501,1724 2501,1738 2449,1738 2449,1775 2501,1775 2501,1789 2449,1789 2449,1838 2501,1838 2501,1853 2433,1853 2433,1724 Z"/>
         <path fill="none" stroke="rgb(35,31,32)" stroke-width="1" stroke-linejoin="miter" d="M 2433,1853 L 2433,1724 2501,1724 2501,1738 2449,1738 2449,1775 2501,1775 2501,1789 2449,1789 2449,1838 2501,1838 2501,1853 2433,1853 2433,1853 Z"/>
         <path fill="rgb(35,31,32)" stroke="none" d="M 2687,1781 C 2695,1785 2701,1789 2706,1795 2710,1801 2712,1808 2712,1816 2712,1828 2708,1838 2701,1845 2693,1852 2683,1856 2671,1856 2661,1856 2652,1853 2645,1848 2639,1843 2634,1836 2632,1826 L 2645,1819 C 2647,1827 2650,1833 2655,1837 2659,1841 2664,1843 2671,1843 2679,1843 2685,1841 2689,1836 2694,1832 2697,1826 2697,1819 2697,1813 2695,1808 2692,1804 2688,1800 2683,1796 2677,1793 L 2661,1787 C 2653,1783 2646,1778 2642,1773 2638,1767 2636,1760 2636,1753 2636,1743 2639,1736 2646,1730 2653,1724 2661,1721 2672,1721 2680,1721 2686,1723 2692,1726 2698,1729 2702,1734 2705,1740 L 2692,1748 C 2690,1743 2686,1740 2683,1737 2679,1735 2675,1734 2671,1734 2665,1734 2660,1735 2657,1739 2653,1743 2651,1747 2651,1752 2651,1757 2653,1761 2655,1764 2658,1768 2663,1771 2668,1773 L 2687,1781 2687,1781 Z"/>
         <path fill="none" stroke="rgb(35,31,32)" stroke-width="1" stroke-linejoin="miter" d="M 2687,1781 C 2695,1785 2701,1789 2706,1795 2710,1801 2712,1808 2712,1816 2712,1828 2708,1838 2701,1845 2693,1852 2683,1856 2671,1856 2661,1856 2652,1853 2645,1848 2639,1843 2634,1836 2632,1826 L 2645,1819 C 2647,1827 2650,1833 2655,1837 2659,1841 2664,1843 2671,1843 2679,1843 2685,1841 2689,1836 2694,1832 2697,1826 2697,1819 2697,1813 2695,1808 2692,1804 2688,1800 2683,1796 2677,1793 L 2661,1787 C 2653,1783 2646,1778 2642,1773 2638,1767 2636,1760 2636,1753 2636,1743 2639,1736 2646,1730 2653,1724 2661,1721 2672,1721 2680,1721 2686,1723 2692,1726 2698,1729 2702,1734 2705,1740 L 2692,1748 C 2690,1743 2686,1740 2683,1737 2679,1735 2675,1734 2671,1734 2665,1734 2660,1735 2657,1739 2653,1743 2651,1747 2651,1752 2651,1757 2653,1761 2655,1764 2658,1768 2663,1771 2668,1773 L 2687,1781 Z"/>
         <path fill="rgb(35,31,32)" stroke="none" d="M 496,1269 C 473,1244 448,1226 422,1214 396,1202 367,1196 335,1196 310,1196 285,1201 260,1211 236,1222 215,1236 197,1255 178,1274 164,1295 155,1319 146,1343 141,1369 141,1398 141,1420 144,1441 149,1460 155,1479 163,1496 174,1512 194,1540 218,1561 246,1576 274,1591 305,1598 338,1598 369,1598 397,1592 424,1579 450,1566 475,1547 496,1522 L 496,1598 C 472,1616 446,1629 419,1638 391,1647 362,1651 333,1651 307,1651 282,1648 258,1640 234,1632 211,1621 190,1607 155,1582 128,1552 109,1516 90,1480 81,1441 81,1398 81,1361 87,1327 100,1296 112,1266 131,1238 157,1213 181,1189 209,1172 239,1160 269,1148 302,1142 337,1142 365,1142 392,1146 418,1155 445,1163 471,1176 496,1194 L 496,1269 496,1269 496,1269 Z"/>
         <path fill="none" stroke="rgb(35,31,32)" stroke-width="4" stroke-linejoin="miter" d="M 496,1269 C 473,1244 448,1226 422,1214 396,1202 367,1196 335,1196 310,1196 285,1201 260,1211 236,1222 215,1236 197,1255 178,1274 164,1295 155,1319 146,1343 141,1369 141,1398 141,1420 144,1441 149,1460 155,1479 163,1496 174,1512 194,1540 218,1561 246,1576 274,1591 305,1598 338,1598 369,1598 397,1592 424,1579 450,1566 475,1547 496,1522 L 496,1598 C 472,1616 446,1629 419,1638 391,1647 362,1651 333,1651 307,1651 282,1648 258,1640 234,1632 211,1621 190,1607 155,1582 128,1552 109,1516 90,1480 81,1441 81,1398 81,1361 87,1327 100,1296 112,1266 131,1238 157,1213 181,1189 209,1172 239,1160 269,1148 302,1142 337,1142 365,1142 392,1146 418,1155 445,1163 471,1176 496,1194 L 496,1269 Z"/>
         <path fill="rgb(35,31,32)" stroke="none" d="M 587,1638 L 587,1215 810,1215 810,1261 638,1261 638,1383 810,1383 810,1429 638,1429 638,1592 810,1592 810,1638 587,1638 587,1638 Z"/>
         <path fill="none" stroke="rgb(35,31,32)" stroke-width="4" stroke-linejoin="miter" d="M 587,1638 L 587,1215 810,1215 810,1261 638,1261 638,1383 810,1383 810,1429 638,1429 638,1592 810,1592 810,1638 587,1638 587,1638 Z"/>
         <path fill="rgb(35,31,32)" stroke="none" d="M 896,1638 L 896,1199 1205,1537 1205,1215 1253,1215 1253,1655 944,1320 944,1638 896,1638 896,1638 Z"/>
         <path fill="none" stroke="rgb(35,31,32)" stroke-width="4" stroke-linejoin="miter" d="M 896,1638 L 896,1199 1205,1537 1205,1215 1253,1215 1253,1655 944,1320 944,1638 896,1638 896,1638 Z"/>
         <path fill="rgb(35,31,32)" stroke="none" d="M 1428,1638 L 1428,1263 1308,1263 1308,1215 1598,1215 1598,1263 1479,1263 1479,1638 1428,1638 1428,1638 Z"/>
         <path fill="none" stroke="rgb(35,31,32)" stroke-width="4" stroke-linejoin="miter" d="M 1428,1638 L 1428,1263 1308,1263 1308,1215 1598,1215 1598,1263 1479,1263 1479,1638 1428,1638 1428,1638 Z"/>
         <path fill="rgb(35,31,32)" stroke="none" d="M 1654,1638 L 1654,1215 1877,1215 1877,1261 1704,1261 1704,1383 1877,1383 1877,1429 1704,1429 1704,1592 1877,1592 1877,1638 1654,1638 1654,1638 Z"/>
         <path fill="none" stroke="rgb(35,31,32)" stroke-width="4" stroke-linejoin="miter" d="M 1654,1638 L 1654,1215 1877,1215 1877,1261 1704,1261 1704,1383 1877,1383 1877,1429 1704,1429 1704,1592 1877,1592 1877,1638 1654,1638 1654,1638 Z"/>
         <path fill="rgb(35,31,32)" stroke="none" d="M 2195,1420 L 2369,1420 2369,1434 C 2369,1501 2351,1553 2313,1592 2275,1630 2224,1650 2158,1650 2138,1650 2119,1648 2101,1643 2083,1639 2067,1633 2052,1625 2017,1606 1990,1579 1971,1546 1952,1512 1943,1474 1943,1431 1943,1396 1949,1364 1960,1336 1971,1307 1988,1282 2011,1261 2030,1243 2052,1229 2077,1220 2103,1210 2131,1206 2161,1206 2202,1206 2237,1213 2267,1228 2297,1243 2322,1265 2341,1295 L 2299,1328 C 2284,1303 2265,1283 2242,1271 2219,1258 2193,1251 2163,1251 2114,1251 2074,1268 2043,1301 2013,1334 1997,1378 1997,1431 1997,1482 2013,1523 2044,1555 2075,1588 2115,1604 2163,1604 2205,1604 2241,1591 2269,1565 2297,1540 2313,1506 2316,1465 L 2195,1465 2195,1420 2195,1420 2195,1420 Z"/>
         <path fill="none" stroke="rgb(35,31,32)" stroke-width="4" stroke-linejoin="miter" d="M 2195,1420 L 2369,1420 2369,1434 C 2369,1501 2351,1553 2313,1592 2275,1630 2224,1650 2158,1650 2138,1650 2119,1648 2101,1643 2083,1639 2067,1633 2052,1625 2017,1606 1990,1579 1971,1546 1952,1512 1943,1474 1943,1431 1943,1396 1949,1364 1960,1336 1971,1307 1988,1282 2011,1261 2030,1243 2052,1229 2077,1220 2103,1210 2131,1206 2161,1206 2202,1206 2237,1213 2267,1228 2297,1243 2322,1265 2341,1295 L 2299,1328 C 2284,1303 2265,1283 2242,1271 2219,1258 2193,1251 2163,1251 2114,1251 2074,1268 2043,1301 2013,1334 1997,1378 1997,1431 1997,1482 2013,1523 2044,1555 2075,1588 2115,1604 2163,1604 2205,1604 2241,1591 2269,1565 2297,1540 2313,1506 2316,1465 L 2195,1465 2195,1420 Z"/>
         <path fill="rgb(35,31,32)" stroke="none" d="M 2527,1638 L 2527,1445 2383,1215 2441,1215 2552,1399 2662,1215 2720,1215 2577,1445 2577,1638 2527,1638 2527,1638 Z"/>
         <path fill="none" stroke="rgb(35,31,32)" stroke-width="4" stroke-linejoin="miter" d="M 2527,1638 L 2527,1445 2383,1215 2441,1215 2552,1399 2662,1215 2720,1215 2577,1445 2577,1638 2527,1638 2527,1638 Z"/>
        </g>
        <defs>
         <clipPath id="clip_path_2" clipPathUnits="userSpaceOnUse">
          <path d="M 1523,1107 C 1523,1107 1704,949 1848,764 1848,764 1864,740 1851,713 1838,684 1780,588 1780,588 1780,588 1767,562 1752,581 1752,581 1589,797 1434,932 1414,949 1352,1006 1320,1030 1306,1041 1294,1053 1314,1059 1334,1065 1523,1107 1523,1107 L 1523,1107 Z"/>
         </clipPath>
        </defs>
        <g clip-path="url(#clip_path_2)">
         <path fill="rgb(35,31,32)" stroke="none" d="M 1946,908 L 1940,895 1364,1176 1371,1189 1946,908 Z"/>
         <path fill="rgb(35,31,32)" stroke="none" d="M 1946,908 L 1936,886 1360,1167 1371,1189 1946,908 Z"/>
         <path fill="rgb(42,31,32)" stroke="none" d="M 1942,899 L 1931,876 1355,1157 1366,1180 1942,899 Z"/>
         <path fill="rgb(49,31,33)" stroke="none" d="M 1937,889 L 1926,867 1351,1148 1362,1170 1937,889 Z"/>
         <path fill="rgb(56,31,33)" stroke="none" d="M 1933,880 L 1922,858 1346,1138 1357,1161 1933,880 Z"/>
         <path fill="rgb(64,31,33)" stroke="none" d="M 1928,870 L 1917,848 1341,1129 1352,1151 1928,870 Z"/>
         <path fill="rgb(71,32,33)" stroke="none" d="M 1923,861 L 1913,839 1337,1120 1348,1142 1923,861 Z"/>
         <path fill="rgb(78,32,34)" stroke="none" d="M 1919,851 L 1908,829 1332,1110 1343,1132 1919,851 Z"/>
         <path fill="rgb(85,32,34)" stroke="none" d="M 1914,842 L 1903,820 1328,1101 1339,1123 1914,842 Z"/>
         <path fill="rgb(92,32,34)" stroke="none" d="M 1910,833 L 1899,810 1323,1091 1334,1113 1910,833 Z"/>
         <path fill="rgb(99,32,34)" stroke="none" d="M 1905,823 L 1894,801 1318,1082 1329,1104 1905,823 Z"/>
         <path fill="rgb(106,32,35)" stroke="none" d="M 1900,814 L 1890,791 1314,1072 1325,1095 1900,814 Z"/>
         <path fill="rgb(114,32,35)" stroke="none" d="M 1896,804 L 1885,782 1309,1063 1320,1085 1896,804 Z"/>
         <path fill="rgb(121,32,35)" stroke="none" d="M 1891,795 L 1880,773 1305,1053 1315,1076 1891,795 Z"/>
         <path fill="rgb(128,32,35)" stroke="none" d="M 1887,785 L 1876,763 1300,1044 1311,1066 1887,785 Z"/>
         <path fill="rgb(135,33,36)" stroke="none" d="M 1882,776 L 1871,754 1295,1035 1306,1057 1882,776 Z"/>
         <path fill="rgb(142,33,36)" stroke="none" d="M 1877,766 L 1867,744 1291,1025 1302,1047 1877,766 Z"/>
         <path fill="rgb(149,33,36)" stroke="none" d="M 1873,757 L 1862,735 1286,1016 1297,1038 1873,757 Z"/>
         <path fill="rgb(156,33,36)" stroke="none" d="M 1868,748 L 1857,725 1282,1006 1292,1028 1868,748 Z"/>
         <path fill="rgb(164,33,37)" stroke="none" d="M 1864,738 L 1853,716 1277,997 1288,1019 1864,738 Z"/>
         <path fill="rgb(171,33,37)" stroke="none" d="M 1859,729 L 1848,706 1272,987 1283,1010 1859,729 Z"/>
         <path fill="rgb(178,33,37)" stroke="none" d="M 1854,719 L 1844,697 1268,978 1279,1000 1854,719 Z"/>
         <path fill="rgb(185,33,37)" stroke="none" d="M 1850,710 L 1839,688 1263,968 1274,991 1850,710 Z"/>
         <path fill="rgb(192,33,38)" stroke="none" d="M 1845,700 L 1834,678 1259,959 1269,981 1845,700 Z"/>
         <path fill="rgb(199,33,38)" stroke="none" d="M 1841,691 L 1830,669 1254,950 1265,972 1841,691 Z"/>
         <path fill="rgb(206,34,38)" stroke="none" d="M 1836,681 L 1825,659 1249,940 1260,962 1836,681 Z"/>
         <path fill="rgb(214,34,38)" stroke="none" d="M 1831,672 L 1821,650 1245,931 1256,953 1831,672 Z"/>
         <path fill="rgb(221,34,39)" stroke="none" d="M 1827,663 L 1816,640 1240,921 1251,943 1827,663 Z"/>
         <path fill="rgb(228,34,39)" stroke="none" d="M 1822,653 L 1811,631 1236,912 1246,934 1822,653 Z"/>
         <path fill="rgb(235,34,39)" stroke="none" d="M 1818,644 L 1807,622 1231,903 1242,925 1818,644 Z"/>
         <path fill="rgb(233,34,39)" stroke="none" d="M 1813,635 L 1802,613 1227,894 1237,916 1813,635 Z"/>
         <path fill="rgb(230,34,39)" stroke="none" d="M 1809,626 L 1798,604 1222,885 1233,906 1809,626 Z"/>
         <path fill="rgb(227,33,39)" stroke="none" d="M 1804,617 L 1794,595 1218,876 1229,897 1804,617 Z"/>
         <path fill="rgb(225,33,39)" stroke="none" d="M 1800,608 L 1789,586 1214,867 1224,888 1800,608 Z"/>
         <path fill="rgb(223,33,39)" stroke="none" d="M 1796,599 L 1785,577 1209,858 1220,879 1796,599 Z"/>
         <path fill="rgb(220,33,39)" stroke="none" d="M 1791,589 L 1780,568 1205,848 1215,870 1791,589 Z"/>
         <path fill="rgb(218,32,39)" stroke="none" d="M 1787,580 L 1776,559 1200,839 1211,861 1787,580 Z"/>
        </g>
        <g clip-path="url(#clip_path_1)"/>
        <defs>
         <clipPath id="clip_path_3" clipPathUnits="userSpaceOnUse">
          <path d="M 1414,897 C 1414,897 1580,737 1709,554 1709,554 1728,532 1715,508 1701,481 1634,391 1634,391 1634,391 1621,368 1607,386 1607,386 1462,599 1321,735 1303,752 1246,809 1216,833 1204,844 1194,856 1213,861 1232,866 1414,897 1414,897 L 1414,897 Z"/>
         </clipPath>
        </defs>
        <g clip-path="url(#clip_path_3)">
         <path fill="rgb(35,31,32)" stroke="none" d="M 1814,712 L 1803,688 1251,954 1262,978 1814,712 Z"/>
         <path fill="rgb(41,33,32)" stroke="none" d="M 1809,701 L 1798,677 1246,944 1257,968 1809,701 Z"/>
         <path fill="rgb(46,35,32)" stroke="none" d="M 1804,691 L 1793,667 1241,934 1252,958 1804,691 Z"/>
         <path fill="rgb(52,37,33)" stroke="none" d="M 1799,681 L 1788,657 1236,923 1247,947 1799,681 Z"/>
         <path fill="rgb(57,39,33)" stroke="none" d="M 1794,670 L 1783,646 1231,913 1242,937 1794,670 Z"/>
         <path fill="rgb(63,41,33)" stroke="none" d="M 1789,660 L 1778,636 1226,903 1237,927 1789,660 Z"/>
         <path fill="rgb(68,42,33)" stroke="none" d="M 1784,650 L 1773,626 1221,892 1232,916 1784,650 Z"/>
         <path fill="rgb(74,44,33)" stroke="none" d="M 1779,639 L 1768,615 1216,882 1227,906 1779,639 Z"/>
         <path fill="rgb(80,46,33)" stroke="none" d="M 1774,629 L 1763,605 1211,872 1222,896 1774,629 Z"/>
         <path fill="rgb(85,48,34)" stroke="none" d="M 1769,619 L 1758,595 1206,862 1217,885 1769,619 Z"/>
         <path fill="rgb(91,50,34)" stroke="none" d="M 1764,608 L 1753,585 1201,851 1212,875 1764,608 Z"/>
         <path fill="rgb(96,52,34)" stroke="none" d="M 1759,598 L 1748,574 1196,841 1207,865 1759,598 Z"/>
         <path fill="rgb(102,54,34)" stroke="none" d="M 1754,588 L 1743,564 1191,831 1202,855 1754,588 Z"/>
         <path fill="rgb(107,56,34)" stroke="none" d="M 1749,578 L 1738,554 1186,820 1197,844 1749,578 Z"/>
         <path fill="rgb(113,58,35)" stroke="none" d="M 1744,567 L 1733,543 1181,810 1192,834 1744,567 Z"/>
         <path fill="rgb(119,60,35)" stroke="none" d="M 1739,557 L 1728,533 1176,800 1187,824 1739,557 Z"/>
         <path fill="rgb(124,62,35)" stroke="none" d="M 1734,547 L 1723,523 1171,789 1182,813 1734,547 Z"/>
         <path fill="rgb(130,63,35)" stroke="none" d="M 1729,536 L 1718,512 1166,779 1177,803 1729,536 Z"/>
         <path fill="rgb(135,65,35)" stroke="none" d="M 1724,526 L 1713,502 1161,769 1172,793 1724,526 Z"/>
         <path fill="rgb(141,67,35)" stroke="none" d="M 1719,516 L 1708,492 1156,758 1167,782 1719,516 Z"/>
         <path fill="rgb(147,69,36)" stroke="none" d="M 1714,505 L 1703,481 1151,748 1162,772 1714,505 Z"/>
         <path fill="rgb(152,71,36)" stroke="none" d="M 1709,495 L 1698,471 1146,738 1157,762 1709,495 Z"/>
         <path fill="rgb(158,73,36)" stroke="none" d="M 1704,485 L 1693,461 1141,727 1152,751 1704,485 Z"/>
         <path fill="rgb(163,75,36)" stroke="none" d="M 1699,474 L 1688,450 1136,717 1147,741 1699,474 Z"/>
         <path fill="rgb(169,77,36)" stroke="none" d="M 1694,464 L 1683,440 1131,707 1142,731 1694,464 Z"/>
         <path fill="rgb(174,79,37)" stroke="none" d="M 1689,454 L 1678,430 1126,697 1137,720 1689,454 Z"/>
         <path fill="rgb(180,81,37)" stroke="none" d="M 1684,443 L 1673,420 1121,686 1132,710 1684,443 Z"/>
         <path fill="rgb(186,83,37)" stroke="none" d="M 1679,433 L 1668,409 1116,676 1127,700 1679,433 Z"/>
         <path fill="rgb(191,84,37)" stroke="none" d="M 1674,423 L 1663,399 1111,666 1122,690 1674,423 Z"/>
         <path fill="rgb(197,86,37)" stroke="none" d="M 1669,413 L 1658,389 1106,655 1117,679 1669,413 Z"/>
         <path fill="rgb(202,88,37)" stroke="none" d="M 1664,402 L 1653,378 1101,645 1112,669 1664,402 Z"/>
         <path fill="rgb(208,90,38)" stroke="none" d="M 1659,392 L 1648,368 1096,635 1107,659 1659,392 Z"/>
         <path fill="rgb(213,92,38)" stroke="none" d="M 1654,382 L 1643,358 1091,624 1102,648 1654,382 Z"/>
         <path fill="rgb(219,94,38)" stroke="none" d="M 1649,371 L 1643,358 1091,624 1097,638 1649,371 Z"/>
        </g>
        <g clip-path="url(#clip_path_1)"/>
        <defs>
         <clipPath id="clip_path_4" clipPathUnits="userSpaceOnUse">
          <path d="M 1293,703 C 1293,703 1450,540 1564,359 1564,359 1578,336 1564,314 1547,291 1476,210 1476,210 1476,210 1460,192 1448,210 1448,210 1319,422 1188,560 1171,578 1119,636 1091,661 1079,672 1070,685 1089,687 1109,690 1293,703 1293,703 L 1293,703 Z"/>
         </clipPath>
        </defs>
        <g clip-path="url(#clip_path_4)">
         <path fill="rgb(35,31,32)" stroke="none" d="M 1663,424 L 1661,422 1174,792 1175,794 1663,424 Z"/>
         <path fill="rgb(35,31,32)" stroke="none" d="M 1663,424 L 1659,420 1172,790 1175,794 1663,424 Z"/>
         <path fill="rgb(35,32,32)" stroke="none" d="M 1661,422 L 1657,418 1170,788 1174,792 1661,422 Z"/>
         <path fill="rgb(35,33,33)" stroke="none" d="M 1659,420 L 1656,416 1168,786 1172,790 1659,420 Z"/>
         <path fill="rgb(34,34,33)" stroke="none" d="M 1657,418 L 1654,414 1167,784 1170,788 1657,418 Z"/>
         <path fill="rgb(34,35,33)" stroke="none" d="M 1656,416 L 1652,412 1165,782 1168,786 1656,416 Z"/>
         <path fill="rgb(34,36,34)" stroke="none" d="M 1654,414 L 1650,410 1163,780 1167,784 1654,414 Z"/>
         <path fill="rgb(34,37,34)" stroke="none" d="M 1652,412 L 1649,408 1161,778 1165,782 1652,412 Z"/>
         <path fill="rgb(33,37,34)" stroke="none" d="M 1650,410 L 1647,406 1160,776 1163,780 1650,410 Z"/>
         <path fill="rgb(33,38,34)" stroke="none" d="M 1649,408 L 1645,404 1158,774 1161,778 1649,408 Z"/>
         <path fill="rgb(33,39,35)" stroke="none" d="M 1647,406 L 1644,402 1156,772 1160,776 1647,406 Z"/>
         <path fill="rgb(33,40,35)" stroke="none" d="M 1645,404 L 1642,401 1155,770 1158,774 1645,404 Z"/>
         <path fill="rgb(32,41,35)" stroke="none" d="M 1644,402 L 1640,399 1153,768 1156,772 1644,402 Z"/>
         <path fill="rgb(32,42,36)" stroke="none" d="M 1642,400 L 1638,397 1151,766 1155,770 1642,400 Z"/>
         <path fill="rgb(32,43,36)" stroke="none" d="M 1640,398 L 1637,395 1149,764 1153,768 1640,398 Z"/>
         <path fill="rgb(32,44,36)" stroke="none" d="M 1638,396 L 1635,393 1148,762 1151,766 1638,396 Z"/>
         <path fill="rgb(32,45,37)" stroke="none" d="M 1637,394 L 1633,391 1146,760 1149,764 1637,394 Z"/>
         <path fill="rgb(31,46,37)" stroke="none" d="M 1635,392 L 1631,389 1144,758 1148,762 1635,392 Z"/>
         <path fill="rgb(31,47,37)" stroke="none" d="M 1633,390 L 1630,387 1142,756 1146,760 1633,390 Z"/>
         <path fill="rgb(31,48,38)" stroke="none" d="M 1631,388 L 1628,385 1141,754 1144,758 1631,388 Z"/>
         <path fill="rgb(31,49,38)" stroke="none" d="M 1630,386 L 1626,383 1139,752 1142,756 1630,386 Z"/>
         <path fill="rgb(30,49,38)" stroke="none" d="M 1628,385 L 1624,381 1137,750 1141,754 1628,385 Z"/>
         <path fill="rgb(30,50,38)" stroke="none" d="M 1626,383 L 1623,379 1135,748 1139,752 1626,383 Z"/>
         <path fill="rgb(30,51,39)" stroke="none" d="M 1624,381 L 1621,377 1134,746 1137,750 1624,381 Z"/>
         <path fill="rgb(30,52,39)" stroke="none" d="M 1623,379 L 1619,375 1132,744 1135,748 1623,379 Z"/>
         <path fill="rgb(30,53,39)" stroke="none" d="M 1621,377 L 1618,373 1130,742 1134,746 1621,377 Z"/>
         <path fill="rgb(29,54,40)" stroke="none" d="M 1619,375 L 1616,371 1129,740 1132,744 1619,375 Z"/>
         <path fill="rgb(29,55,40)" stroke="none" d="M 1618,373 L 1614,369 1127,738 1130,742 1618,373 Z"/>
         <path fill="rgb(29,56,40)" stroke="none" d="M 1616,371 L 1612,367 1125,736 1129,740 1616,371 Z"/>
         <path fill="rgb(29,57,41)" stroke="none" d="M 1614,369 L 1611,365 1123,734 1127,738 1614,369 Z"/>
         <path fill="rgb(28,58,41)" stroke="none" d="M 1612,367 L 1609,363 1122,732 1125,736 1612,367 Z"/>
         <path fill="rgb(28,59,41)" stroke="none" d="M 1611,365 L 1607,361 1120,730 1123,734 1611,365 Z"/>
         <path fill="rgb(28,60,42)" stroke="none" d="M 1609,363 L 1605,359 1118,728 1122,732 1609,363 Z"/>
         <path fill="rgb(28,60,42)" stroke="none" d="M 1607,361 L 1604,357 1116,726 1120,730 1607,361 Z"/>
         <path fill="rgb(27,61,42)" stroke="none" d="M 1605,359 L 1602,355 1115,724 1118,728 1605,359 Z"/>
         <path fill="rgb(27,62,42)" stroke="none" d="M 1604,357 L 1600,353 1113,722 1116,726 1604,357 Z"/>
         <path fill="rgb(27,63,43)" stroke="none" d="M 1602,355 L 1598,351 1111,720 1115,724 1602,355 Z"/>
         <path fill="rgb(27,64,43)" stroke="none" d="M 1600,353 L 1597,349 1110,718 1113,722 1600,353 Z"/>
         <path fill="rgb(27,65,43)" stroke="none" d="M 1598,351 L 1595,347 1108,716 1111,720 1598,351 Z"/>
         <path fill="rgb(26,66,44)" stroke="none" d="M 1597,349 L 1593,345 1106,714 1109,718 1597,349 Z"/>
         <path fill="rgb(26,67,44)" stroke="none" d="M 1595,347 L 1592,343 1104,712 1108,716 1595,347 Z"/>
         <path fill="rgb(26,68,44)" stroke="none" d="M 1593,345 L 1590,341 1103,710 1106,714 1593,345 Z"/>
         <path fill="rgb(26,69,45)" stroke="none" d="M 1592,343 L 1588,339 1101,708 1104,712 1592,343 Z"/>
         <path fill="rgb(25,70,45)" stroke="none" d="M 1590,341 L 1586,337 1099,706 1103,710 1590,341 Z"/>
         <path fill="rgb(25,71,45)" stroke="none" d="M 1588,339 L 1585,335 1097,704 1101,708 1588,339 Z"/>
         <path fill="rgb(25,72,46)" stroke="none" d="M 1586,337 L 1583,333 1096,702 1099,706 1586,337 Z"/>
         <path fill="rgb(25,72,46)" stroke="none" d="M 1585,335 L 1581,331 1094,700 1097,704 1585,335 Z"/>
         <path fill="rgb(25,73,46)" stroke="none" d="M 1583,333 L 1579,329 1092,698 1096,702 1583,333 Z"/>
         <path fill="rgb(24,74,46)" stroke="none" d="M 1581,331 L 1578,327 1090,696 1094,700 1581,331 Z"/>
         <path fill="rgb(24,75,47)" stroke="none" d="M 1579,329 L 1576,325 1089,694 1092,698 1579,329 Z"/>
         <path fill="rgb(24,76,47)" stroke="none" d="M 1578,327 L 1574,323 1087,692 1090,696 1578,327 Z"/>
         <path fill="rgb(24,77,47)" stroke="none" d="M 1576,325 L 1572,321 1085,690 1089,694 1576,325 Z"/>
         <path fill="rgb(23,78,48)" stroke="none" d="M 1574,323 L 1571,319 1084,688 1087,692 1574,323 Z"/>
         <path fill="rgb(23,79,48)" stroke="none" d="M 1572,321 L 1569,317 1082,686 1085,690 1572,321 Z"/>
         <path fill="rgb(23,80,48)" stroke="none" d="M 1571,319 L 1567,315 1080,684 1083,688 1571,319 Z"/>
         <path fill="rgb(23,81,49)" stroke="none" d="M 1569,317 L 1566,313 1078,682 1082,686 1569,317 Z"/>
         <path fill="rgb(22,82,49)" stroke="none" d="M 1567,315 L 1564,311 1077,680 1080,684 1567,315 Z"/>
         <path fill="rgb(22,83,49)" stroke="none" d="M 1566,313 L 1562,309 1075,678 1078,682 1566,313 Z"/>
         <path fill="rgb(22,84,50)" stroke="none" d="M 1564,311 L 1560,307 1073,676 1077,680 1564,311 Z"/>
         <path fill="rgb(22,84,50)" stroke="none" d="M 1562,309 L 1559,305 1071,674 1075,678 1562,309 Z"/>
         <path fill="rgb(22,85,50)" stroke="none" d="M 1560,307 L 1557,303 1070,672 1073,676 1560,307 Z"/>
         <path fill="rgb(21,86,50)" stroke="none" d="M 1559,305 L 1555,301 1068,670 1071,674 1559,305 Z"/>
         <path fill="rgb(21,87,51)" stroke="none" d="M 1557,303 L 1553,299 1066,668 1070,672 1557,303 Z"/>
         <path fill="rgb(21,88,51)" stroke="none" d="M 1555,301 L 1552,297 1064,666 1068,670 1555,301 Z"/>
         <path fill="rgb(21,89,51)" stroke="none" d="M 1553,299 L 1550,295 1063,664 1066,668 1553,299 Z"/>
         <path fill="rgb(20,90,52)" stroke="none" d="M 1552,297 L 1548,293 1061,662 1064,666 1552,297 Z"/>
         <path fill="rgb(20,91,52)" stroke="none" d="M 1550,295 L 1546,291 1059,660 1063,664 1550,295 Z"/>
         <path fill="rgb(20,92,52)" stroke="none" d="M 1548,293 L 1545,289 1058,658 1061,662 1548,293 Z"/>
         <path fill="rgb(20,93,53)" stroke="none" d="M 1546,291 L 1543,287 1056,656 1059,660 1546,291 Z"/>
         <path fill="rgb(19,94,53)" stroke="none" d="M 1545,289 L 1541,285 1054,654 1057,658 1545,289 Z"/>
         <path fill="rgb(19,95,53)" stroke="none" d="M 1543,287 L 1540,283 1052,652 1056,656 1543,287 Z"/>
         <path fill="rgb(19,95,53)" stroke="none" d="M 1541,285 L 1538,281 1051,650 1054,654 1541,285 Z"/>
         <path fill="rgb(19,96,54)" stroke="none" d="M 1540,283 L 1536,279 1049,648 1052,652 1540,283 Z"/>
         <path fill="rgb(19,97,54)" stroke="none" d="M 1538,281 L 1534,277 1047,646 1051,650 1538,281 Z"/>
         <path fill="rgb(18,98,54)" stroke="none" d="M 1536,279 L 1533,275 1045,644 1049,648 1536,279 Z"/>
         <path fill="rgb(18,99,55)" stroke="none" d="M 1534,277 L 1531,273 1044,642 1047,646 1534,277 Z"/>
         <path fill="rgb(18,100,55)" stroke="none" d="M 1533,275 L 1529,271 1042,640 1045,644 1533,275 Z"/>
         <path fill="rgb(18,101,55)" stroke="none" d="M 1531,273 L 1527,269 1040,638 1044,642 1531,273 Z"/>
         <path fill="rgb(17,102,56)" stroke="none" d="M 1529,271 L 1526,267 1038,636 1042,640 1529,271 Z"/>
         <path fill="rgb(17,103,56)" stroke="none" d="M 1527,269 L 1524,265 1037,634 1040,638 1527,269 Z"/>
         <path fill="rgb(17,104,56)" stroke="none" d="M 1526,267 L 1522,263 1035,632 1038,636 1526,267 Z"/>
         <path fill="rgb(17,105,57)" stroke="none" d="M 1524,265 L 1521,261 1033,630 1037,634 1524,265 Z"/>
         <path fill="rgb(17,106,57)" stroke="none" d="M 1522,263 L 1519,259 1032,628 1035,632 1522,263 Z"/>
         <path fill="rgb(16,107,57)" stroke="none" d="M 1520,261 L 1517,257 1030,626 1033,630 1520,261 Z"/>
         <path fill="rgb(16,107,57)" stroke="none" d="M 1519,259 L 1515,255 1028,624 1031,628 1519,259 Z"/>
         <path fill="rgb(16,108,58)" stroke="none" d="M 1517,257 L 1514,253 1026,622 1030,626 1517,257 Z"/>
         <path fill="rgb(16,109,58)" stroke="none" d="M 1515,255 L 1512,251 1025,620 1028,624 1515,255 Z"/>
         <path fill="rgb(15,110,58)" stroke="none" d="M 1514,253 L 1510,249 1023,618 1026,622 1514,253 Z"/>
         <path fill="rgb(15,111,59)" stroke="none" d="M 1512,251 L 1508,247 1021,616 1025,620 1512,251 Z"/>
         <path fill="rgb(15,112,59)" stroke="none" d="M 1510,249 L 1507,245 1019,614 1023,618 1510,249 Z"/>
         <path fill="rgb(15,113,59)" stroke="none" d="M 1508,247 L 1505,243 1018,612 1021,616 1508,247 Z"/>
         <path fill="rgb(14,114,60)" stroke="none" d="M 1507,245 L 1503,241 1016,610 1019,614 1507,245 Z"/>
         <path fill="rgb(14,115,60)" stroke="none" d="M 1505,243 L 1501,239 1014,608 1018,612 1505,243 Z"/>
         <path fill="rgb(14,116,60)" stroke="none" d="M 1503,241 L 1500,237 1012,606 1016,610 1503,241 Z"/>
         <path fill="rgb(14,117,61)" stroke="none" d="M 1501,239 L 1498,235 1011,604 1014,608 1501,239 Z"/>
         <path fill="rgb(14,118,61)" stroke="none" d="M 1500,237 L 1496,233 1009,602 1012,606 1500,237 Z"/>
         <path fill="rgb(13,119,61)" stroke="none" d="M 1498,235 L 1495,231 1007,600 1011,604 1498,235 Z"/>
         <path fill="rgb(13,119,61)" stroke="none" d="M 1496,233 L 1493,229 1006,598 1009,602 1496,233 Z"/>
         <path fill="rgb(13,120,62)" stroke="none" d="M 1494,231 L 1491,227 1004,596 1007,600 1494,231 Z"/>
         <path fill="rgb(13,121,62)" stroke="none" d="M 1493,229 L 1489,225 1002,594 1005,598 1493,229 Z"/>
         <path fill="rgb(12,122,62)" stroke="none" d="M 1491,227 L 1488,223 1000,592 1004,596 1491,227 Z"/>
         <path fill="rgb(12,123,63)" stroke="none" d="M 1489,225 L 1486,221 999,590 1002,594 1489,225 Z"/>
         <path fill="rgb(12,124,63)" stroke="none" d="M 1488,223 L 1484,219 997,588 1000,592 1488,223 Z"/>
         <path fill="rgb(12,125,63)" stroke="none" d="M 1486,221 L 1482,217 995,586 999,590 1486,221 Z"/>
         <path fill="rgb(12,126,64)" stroke="none" d="M 1484,219 L 1481,215 993,584 997,588 1484,219 Z"/>
         <path fill="rgb(11,127,64)" stroke="none" d="M 1482,217 L 1479,213 992,582 995,586 1482,217 Z"/>
         <path fill="rgb(11,128,64)" stroke="none" d="M 1481,215 L 1477,211 990,580 993,584 1481,215 Z"/>
         <path fill="rgb(11,129,65)" stroke="none" d="M 1479,213 L 1475,209 988,578 992,582 1479,213 Z"/>
         <path fill="rgb(11,130,65)" stroke="none" d="M 1477,211 L 1474,207 986,576 990,580 1477,211 Z"/>
         <path fill="rgb(10,130,65)" stroke="none" d="M 1475,209 L 1472,205 985,574 988,578 1475,209 Z"/>
         <path fill="rgb(10,131,65)" stroke="none" d="M 1474,207 L 1470,203 983,573 986,576 1474,207 Z"/>
         <path fill="rgb(10,132,66)" stroke="none" d="M 1472,205 L 1469,201 981,571 985,574 1472,205 Z"/>
         <path fill="rgb(10,133,66)" stroke="none" d="M 1470,203 L 1467,199 980,569 983,572 1470,203 Z"/>
         <path fill="rgb(9,134,66)" stroke="none" d="M 1468,201 L 1465,197 978,567 981,570 1468,201 Z"/>
         <path fill="rgb(9,135,67)" stroke="none" d="M 1467,199 L 1463,195 976,565 979,568 1467,199 Z"/>
         <path fill="rgb(9,136,67)" stroke="none" d="M 1465,197 L 1463,195 976,565 978,566 1465,197 Z"/>
        </g>
        <g clip-path="url(#clip_path_1)"/>
        <defs>
         <clipPath id="clip_path_5" clipPathUnits="userSpaceOnUse">
          <path d="M 1156,534 C 1156,534 1303,366 1403,188 1403,188 1416,169 1401,150 1384,129 1309,57 1309,57 1309,57 1293,38 1283,56 1283,56 1170,263 1051,401 1036,419 988,476 963,502 952,513 938,533 957,533 977,533 1156,534 1156,534 L 1156,534 Z"/>
         </clipPath>
        </defs>
        <g clip-path="url(#clip_path_5)">
         <path fill="rgb(35,31,32)" stroke="none" d="M 1500,246 L 1500,246 1045,627 1045,627 1500,246 Z"/>
         <path fill="rgb(35,31,32)" stroke="none" d="M 1500,246 L 1499,244 1044,625 1045,627 1500,246 Z"/>
         <path fill="rgb(35,32,33)" stroke="none" d="M 1499,244 L 1497,243 1043,624 1044,625 1499,244 Z"/>
         <path fill="rgb(35,32,34)" stroke="none" d="M 1497,243 L 1496,241 1041,622 1043,624 1497,243 Z"/>
         <path fill="rgb(34,33,34)" stroke="none" d="M 1496,242 L 1495,240 1040,621 1041,623 1496,242 Z"/>
         <path fill="rgb(34,33,35)" stroke="none" d="M 1495,240 L 1493,239 1038,620 1040,621 1495,240 Z"/>
         <path fill="rgb(34,34,36)" stroke="none" d="M 1493,239 L 1492,237 1037,618 1038,620 1493,239 Z"/>
         <path fill="rgb(34,34,37)" stroke="none" d="M 1492,237 L 1491,236 1036,617 1037,618 1492,237 Z"/>
         <path fill="rgb(33,35,38)" stroke="none" d="M 1491,236 L 1489,235 1034,616 1036,617 1491,236 Z"/>
         <path fill="rgb(33,35,38)" stroke="none" d="M 1489,235 L 1488,233 1033,614 1034,616 1489,235 Z"/>
         <path fill="rgb(33,36,39)" stroke="none" d="M 1488,233 L 1486,232 1031,613 1033,614 1488,233 Z"/>
         <path fill="rgb(33,37,40)" stroke="none" d="M 1486,232 L 1485,231 1030,612 1032,613 1486,232 Z"/>
         <path fill="rgb(33,37,41)" stroke="none" d="M 1485,231 L 1484,229 1029,610 1030,612 1485,231 Z"/>
         <path fill="rgb(32,38,42)" stroke="none" d="M 1484,229 L 1482,228 1027,609 1029,610 1484,229 Z"/>
         <path fill="rgb(32,38,42)" stroke="none" d="M 1482,228 L 1481,226 1026,607 1027,609 1482,228 Z"/>
         <path fill="rgb(32,39,43)" stroke="none" d="M 1481,227 L 1479,225 1025,606 1026,607 1481,227 Z"/>
         <path fill="rgb(32,39,44)" stroke="none" d="M 1480,225 L 1478,224 1023,605 1025,606 1480,225 Z"/>
         <path fill="rgb(31,40,45)" stroke="none" d="M 1478,224 L 1477,222 1022,603 1023,605 1478,224 Z"/>
         <path fill="rgb(31,41,46)" stroke="none" d="M 1477,222 L 1475,221 1020,602 1022,603 1477,222 Z"/>
         <path fill="rgb(31,41,46)" stroke="none" d="M 1475,221 L 1474,220 1019,601 1021,602 1475,221 Z"/>
         <path fill="rgb(31,42,47)" stroke="none" d="M 1474,220 L 1473,218 1018,599 1019,601 1474,220 Z"/>
         <path fill="rgb(31,42,48)" stroke="none" d="M 1473,218 L 1471,217 1016,598 1018,599 1473,218 Z"/>
         <path fill="rgb(30,43,49)" stroke="none" d="M 1471,217 L 1470,215 1015,596 1016,598 1471,217 Z"/>
         <path fill="rgb(30,43,50)" stroke="none" d="M 1470,216 L 1468,214 1014,595 1015,597 1470,216 Z"/>
         <path fill="rgb(30,44,50)" stroke="none" d="M 1469,214 L 1467,213 1012,594 1014,595 1469,214 Z"/>
         <path fill="rgb(30,44,51)" stroke="none" d="M 1467,213 L 1466,211 1011,592 1012,594 1467,213 Z"/>
         <path fill="rgb(29,45,52)" stroke="none" d="M 1466,211 L 1464,210 1009,591 1011,592 1466,211 Z"/>
         <path fill="rgb(29,46,53)" stroke="none" d="M 1464,210 L 1463,209 1008,590 1010,591 1464,210 Z"/>
         <path fill="rgb(29,46,54)" stroke="none" d="M 1463,209 L 1462,207 1007,588 1008,590 1463,209 Z"/>
         <path fill="rgb(29,47,54)" stroke="none" d="M 1462,207 L 1460,206 1005,587 1007,588 1462,207 Z"/>
         <path fill="rgb(29,47,55)" stroke="none" d="M 1460,206 L 1459,205 1004,585 1005,587 1460,206 Z"/>
         <path fill="rgb(28,48,56)" stroke="none" d="M 1459,205 L 1457,203 1003,584 1004,586 1459,205 Z"/>
         <path fill="rgb(28,48,57)" stroke="none" d="M 1458,203 L 1456,202 1001,583 1003,584 1458,203 Z"/>
         <path fill="rgb(28,49,58)" stroke="none" d="M 1456,202 L 1455,200 1000,581 1001,583 1456,202 Z"/>
         <path fill="rgb(28,50,58)" stroke="none" d="M 1455,200 L 1453,199 998,580 1000,581 1455,200 Z"/>
         <path fill="rgb(27,50,59)" stroke="none" d="M 1453,199 L 1452,198 997,579 999,580 1453,199 Z"/>
         <path fill="rgb(27,51,60)" stroke="none" d="M 1452,198 L 1451,196 996,577 997,579 1452,198 Z"/>
         <path fill="rgb(27,51,61)" stroke="none" d="M 1451,196 L 1449,195 994,576 996,577 1451,196 Z"/>
         <path fill="rgb(27,52,61)" stroke="none" d="M 1449,195 L 1448,194 993,575 994,576 1449,195 Z"/>
         <path fill="rgb(27,52,62)" stroke="none" d="M 1448,194 L 1446,192 992,573 993,575 1448,194 Z"/>
         <path fill="rgb(26,53,63)" stroke="none" d="M 1447,192 L 1445,191 990,572 992,573 1447,192 Z"/>
         <path fill="rgb(26,53,64)" stroke="none" d="M 1445,191 L 1444,189 989,570 990,572 1445,191 Z"/>
         <path fill="rgb(26,54,65)" stroke="none" d="M 1444,190 L 1442,188 987,569 989,571 1444,190 Z"/>
         <path fill="rgb(26,55,65)" stroke="none" d="M 1442,188 L 1441,187 986,568 987,569 1442,188 Z"/>
         <path fill="rgb(25,55,66)" stroke="none" d="M 1441,187 L 1440,185 985,566 986,568 1441,187 Z"/>
         <path fill="rgb(25,56,67)" stroke="none" d="M 1440,185 L 1438,184 983,565 985,566 1440,185 Z"/>
         <path fill="rgb(25,56,68)" stroke="none" d="M 1438,184 L 1437,183 982,564 983,565 1438,184 Z"/>
         <path fill="rgb(25,57,69)" stroke="none" d="M 1437,183 L 1435,181 981,562 982,564 1437,183 Z"/>
         <path fill="rgb(25,57,69)" stroke="none" d="M 1435,181 L 1434,180 979,561 981,562 1435,181 Z"/>
         <path fill="rgb(24,58,70)" stroke="none" d="M 1434,180 L 1433,179 978,559 979,561 1434,180 Z"/>
         <path fill="rgb(24,58,71)" stroke="none" d="M 1433,179 L 1431,177 976,558 978,560 1433,179 Z"/>
         <path fill="rgb(24,59,72)" stroke="none" d="M 1431,177 L 1430,176 975,557 976,558 1431,177 Z"/>
         <path fill="rgb(24,60,73)" stroke="none" d="M 1430,176 L 1429,174 974,555 975,557 1430,176 Z"/>
         <path fill="rgb(23,60,73)" stroke="none" d="M 1429,174 L 1427,173 972,554 974,555 1429,174 Z"/>
         <path fill="rgb(23,61,74)" stroke="none" d="M 1427,173 L 1426,172 971,553 972,554 1427,173 Z"/>
         <path fill="rgb(23,61,75)" stroke="none" d="M 1426,172 L 1424,170 970,551 971,553 1426,172 Z"/>
         <path fill="rgb(23,62,76)" stroke="none" d="M 1424,170 L 1423,169 968,550 970,551 1424,170 Z"/>
         <path fill="rgb(23,62,77)" stroke="none" d="M 1423,169 L 1422,168 967,549 968,550 1423,169 Z"/>
         <path fill="rgb(22,63,77)" stroke="none" d="M 1422,168 L 1420,166 965,547 967,549 1422,168 Z"/>
         <path fill="rgb(22,64,78)" stroke="none" d="M 1420,166 L 1419,165 964,546 965,547 1420,166 Z"/>
         <path fill="rgb(22,64,79)" stroke="none" d="M 1419,165 L 1418,163 963,544 964,546 1419,165 Z"/>
         <path fill="rgb(22,65,80)" stroke="none" d="M 1418,164 L 1416,162 961,543 963,544 1418,164 Z"/>
         <path fill="rgb(21,65,81)" stroke="none" d="M 1416,162 L 1415,161 960,542 961,543 1416,162 Z"/>
         <path fill="rgb(21,66,81)" stroke="none" d="M 1415,161 L 1413,159 958,540 960,542 1415,161 Z"/>
         <path fill="rgb(21,66,82)" stroke="none" d="M 1413,159 L 1412,158 957,539 959,540 1413,159 Z"/>
         <path fill="rgb(21,67,83)" stroke="none" d="M 1412,158 L 1411,157 956,538 957,539 1412,158 Z"/>
         <path fill="rgb(21,67,84)" stroke="none" d="M 1411,157 L 1409,155 954,536 956,538 1411,157 Z"/>
         <path fill="rgb(20,68,85)" stroke="none" d="M 1409,155 L 1408,154 953,535 954,536 1409,155 Z"/>
         <path fill="rgb(20,69,85)" stroke="none" d="M 1408,154 L 1406,152 952,533 953,535 1408,154 Z"/>
         <path fill="rgb(20,69,86)" stroke="none" d="M 1407,153 L 1405,151 950,532 952,534 1407,153 Z"/>
         <path fill="rgb(20,70,87)" stroke="none" d="M 1405,151 L 1404,150 949,531 950,532 1405,151 Z"/>
         <path fill="rgb(19,70,88)" stroke="none" d="M 1404,150 L 1402,148 947,529 949,531 1404,150 Z"/>
         <path fill="rgb(19,71,89)" stroke="none" d="M 1402,148 L 1401,147 946,528 948,529 1402,148 Z"/>
         <path fill="rgb(19,71,89)" stroke="none" d="M 1401,147 L 1400,146 945,527 946,528 1401,147 Z"/>
         <path fill="rgb(19,72,90)" stroke="none" d="M 1400,146 L 1398,144 943,525 945,527 1400,146 Z"/>
         <path fill="rgb(19,72,91)" stroke="none" d="M 1398,144 L 1397,143 942,524 943,525 1398,144 Z"/>
         <path fill="rgb(18,73,92)" stroke="none" d="M 1397,143 L 1395,142 941,523 942,524 1397,143 Z"/>
         <path fill="rgb(18,74,93)" stroke="none" d="M 1396,142 L 1394,140 939,521 941,523 1396,142 Z"/>
         <path fill="rgb(18,74,93)" stroke="none" d="M 1394,140 L 1393,139 938,520 939,521 1394,140 Z"/>
         <path fill="rgb(18,75,94)" stroke="none" d="M 1393,139 L 1391,137 936,518 938,520 1393,139 Z"/>
         <path fill="rgb(17,75,95)" stroke="none" d="M 1391,138 L 1390,136 935,517 937,518 1391,138 Z"/>
         <path fill="rgb(17,76,96)" stroke="none" d="M 1390,136 L 1389,135 934,516 935,517 1390,136 Z"/>
         <path fill="rgb(17,76,97)" stroke="none" d="M 1389,135 L 1387,133 932,514 934,516 1389,135 Z"/>
         <path fill="rgb(17,77,97)" stroke="none" d="M 1387,133 L 1386,132 931,513 932,514 1387,133 Z"/>
         <path fill="rgb(16,78,98)" stroke="none" d="M 1386,132 L 1384,131 930,512 931,513 1386,132 Z"/>
         <path fill="rgb(16,78,99)" stroke="none" d="M 1385,131 L 1383,129 928,510 930,512 1385,131 Z"/>
         <path fill="rgb(16,79,100)" stroke="none" d="M 1383,129 L 1382,128 927,509 928,510 1383,129 Z"/>
         <path fill="rgb(16,79,101)" stroke="none" d="M 1382,128 L 1380,126 925,507 927,509 1382,128 Z"/>
         <path fill="rgb(16,80,101)" stroke="none" d="M 1380,127 L 1379,125 924,506 926,508 1380,127 Z"/>
         <path fill="rgb(15,80,102)" stroke="none" d="M 1379,125 L 1378,124 923,505 924,506 1379,125 Z"/>
         <path fill="rgb(15,81,103)" stroke="none" d="M 1378,124 L 1376,122 921,503 923,505 1378,124 Z"/>
         <path fill="rgb(15,81,104)" stroke="none" d="M 1376,122 L 1375,121 920,502 921,503 1376,122 Z"/>
         <path fill="rgb(15,82,105)" stroke="none" d="M 1375,121 L 1373,120 919,501 920,502 1375,121 Z"/>
         <path fill="rgb(14,83,105)" stroke="none" d="M 1374,120 L 1372,118 917,499 919,501 1374,120 Z"/>
         <path fill="rgb(14,83,106)" stroke="none" d="M 1372,118 L 1371,117 916,498 917,499 1372,118 Z"/>
         <path fill="rgb(14,84,107)" stroke="none" d="M 1371,117 L 1369,116 914,496 916,498 1371,117 Z"/>
         <path fill="rgb(14,84,108)" stroke="none" d="M 1369,116 L 1368,114 913,495 914,497 1369,116 Z"/>
         <path fill="rgb(14,85,109)" stroke="none" d="M 1368,114 L 1367,113 912,494 913,495 1368,114 Z"/>
         <path fill="rgb(13,85,109)" stroke="none" d="M 1367,113 L 1365,111 910,492 912,494 1367,113 Z"/>
         <path fill="rgb(13,86,110)" stroke="none" d="M 1365,112 L 1364,110 909,491 910,492 1365,112 Z"/>
         <path fill="rgb(13,87,111)" stroke="none" d="M 1364,110 L 1362,109 908,490 909,491 1364,110 Z"/>
         <path fill="rgb(13,87,112)" stroke="none" d="M 1362,109 L 1361,107 906,488 908,490 1362,109 Z"/>
         <path fill="rgb(12,88,113)" stroke="none" d="M 1361,107 L 1360,106 905,487 906,488 1361,107 Z"/>
         <path fill="rgb(12,88,113)" stroke="none" d="M 1360,106 L 1358,105 903,486 905,487 1360,106 Z"/>
         <path fill="rgb(12,89,114)" stroke="none" d="M 1358,105 L 1357,103 902,484 903,486 1358,105 Z"/>
         <path fill="rgb(12,89,115)" stroke="none" d="M 1357,103 L 1356,102 901,483 902,484 1357,103 Z"/>
         <path fill="rgb(12,90,116)" stroke="none" d="M 1356,102 L 1354,100 899,481 901,483 1356,102 Z"/>
         <path fill="rgb(11,90,117)" stroke="none" d="M 1354,101 L 1353,99 898,480 899,482 1354,101 Z"/>
         <path fill="rgb(11,91,117)" stroke="none" d="M 1353,99 L 1351,98 897,479 898,480 1353,99 Z"/>
         <path fill="rgb(11,92,118)" stroke="none" d="M 1351,98 L 1350,96 895,477 897,479 1351,98 Z"/>
         <path fill="rgb(11,92,119)" stroke="none" d="M 1350,96 L 1349,95 894,476 895,477 1350,96 Z"/>
         <path fill="rgb(10,93,120)" stroke="none" d="M 1349,95 L 1347,94 892,475 894,476 1349,95 Z"/>
         <path fill="rgb(10,93,121)" stroke="none" d="M 1347,94 L 1346,92 891,473 892,475 1347,94 Z"/>
         <path fill="rgb(10,94,121)" stroke="none" d="M 1346,92 L 1344,91 890,472 891,473 1346,92 Z"/>
         <path fill="rgb(10,94,122)" stroke="none" d="M 1345,91 L 1343,90 888,470 890,472 1345,91 Z"/>
         <path fill="rgb(10,95,123)" stroke="none" d="M 1343,90 L 1342,88 887,469 888,471 1343,90 Z"/>
         <path fill="rgb(9,95,124)" stroke="none" d="M 1342,88 L 1340,87 885,468 887,469 1342,88 Z"/>
         <path fill="rgb(9,96,124)" stroke="none" d="M 1340,87 L 1339,85 884,466 886,468 1340,87 Z"/>
         <path fill="rgb(9,97,125)" stroke="none" d="M 1339,85 L 1338,84 883,465 884,466 1339,85 Z"/>
         <path fill="rgb(9,97,126)" stroke="none" d="M 1338,84 L 1336,83 881,464 883,465 1338,84 Z"/>
         <path fill="rgb(8,98,127)" stroke="none" d="M 1336,83 L 1335,81 880,462 881,464 1336,83 Z"/>
         <path fill="rgb(8,98,128)" stroke="none" d="M 1335,81 L 1333,80 879,461 880,462 1335,81 Z"/>
         <path fill="rgb(8,99,128)" stroke="none" d="M 1334,80 L 1332,79 877,460 879,461 1334,80 Z"/>
         <path fill="rgb(8,99,129)" stroke="none" d="M 1332,79 L 1331,77 876,458 877,460 1332,79 Z"/>
         <path fill="rgb(8,100,130)" stroke="none" d="M 1331,77 L 1329,76 874,457 876,458 1331,77 Z"/>
         <path fill="rgb(7,101,131)" stroke="none" d="M 1329,76 L 1328,74 873,455 875,457 1329,76 Z"/>
         <path fill="rgb(7,101,132)" stroke="none" d="M 1328,75 L 1327,73 872,454 873,455 1328,75 Z"/>
         <path fill="rgb(7,102,132)" stroke="none" d="M 1327,73 L 1325,72 870,453 872,454 1327,73 Z"/>
         <path fill="rgb(7,102,133)" stroke="none" d="M 1325,72 L 1324,70 869,451 870,453 1325,72 Z"/>
         <path fill="rgb(6,103,134)" stroke="none" d="M 1324,70 L 1322,69 868,450 869,451 1324,70 Z"/>
         <path fill="rgb(6,103,135)" stroke="none" d="M 1323,69 L 1321,68 866,449 868,450 1323,69 Z"/>
         <path fill="rgb(6,104,136)" stroke="none" d="M 1321,68 L 1320,66 865,447 866,449 1321,68 Z"/>
         <path fill="rgb(6,104,136)" stroke="none" d="M 1320,66 L 1318,65 863,446 865,447 1320,66 Z"/>
         <path fill="rgb(6,105,137)" stroke="none" d="M 1318,65 L 1317,64 862,444 864,446 1318,65 Z"/>
         <path fill="rgb(5,106,138)" stroke="none" d="M 1317,64 L 1316,62 861,443 862,445 1317,64 Z"/>
         <path fill="rgb(5,106,139)" stroke="none" d="M 1316,62 L 1314,61 859,442 861,443 1316,62 Z"/>
         <path fill="rgb(5,107,140)" stroke="none" d="M 1314,61 L 1313,59 858,440 859,442 1314,61 Z"/>
         <path fill="rgb(5,107,140)" stroke="none" d="M 1313,59 L 1311,58 857,439 858,440 1313,59 Z"/>
         <path fill="rgb(4,108,141)" stroke="none" d="M 1312,58 L 1310,57 855,438 857,439 1312,58 Z"/>
         <path fill="rgb(4,108,142)" stroke="none" d="M 1310,57 L 1309,55 854,436 855,438 1310,57 Z"/>
         <path fill="rgb(4,109,143)" stroke="none" d="M 1309,55 L 1307,54 852,435 854,436 1309,55 Z"/>
         <path fill="rgb(4,110,144)" stroke="none" d="M 1307,54 L 1306,53 851,434 853,435 1307,54 Z"/>
         <path fill="rgb(4,110,144)" stroke="none" d="M 1306,53 L 1305,51 850,432 851,434 1306,53 Z"/>
         <path fill="rgb(3,111,145)" stroke="none" d="M 1305,51 L 1303,50 848,431 850,432 1305,51 Z"/>
         <path fill="rgb(3,111,146)" stroke="none" d="M 1303,50 L 1302,48 847,429 848,431 1303,50 Z"/>
         <path fill="rgb(3,112,147)" stroke="none" d="M 1302,49 L 1300,47 846,428 847,429 1302,49 Z"/>
         <path fill="rgb(3,112,148)" stroke="none" d="M 1300,47 L 1299,46 844,427 846,428 1300,47 Z"/>
         <path fill="rgb(2,113,148)" stroke="none" d="M 1299,46 L 1298,44 843,425 844,427 1299,46 Z"/>
         <path fill="rgb(2,113,149)" stroke="none" d="M 1298,44 L 1296,43 841,424 843,425 1298,44 Z"/>
        </g>
        <g clip-path="url(#clip_path_1)"/>
        <defs>
         <clipPath id="clip_path_6" clipPathUnits="userSpaceOnUse">
          <path d="M 1509,1104 C 1509,1104 1694,946 1838,761 1838,761 1856,742 1844,716 1830,686 1766,585 1766,585 1766,585 1753,559 1738,578 1738,578 1575,794 1421,929 1400,946 1338,1003 1306,1027 1292,1037 1281,1050 1301,1056 1320,1062 1509,1104 1509,1104 L 1509,1104 Z"/>
         </clipPath>
        </defs>
        <g clip-path="url(#clip_path_6)">
         <path fill="rgb(244,130,32)" stroke="none" d="M 1263,1104 L 1316,1104 1316,571 1263,571 1263,1104 Z"/>
         <path fill="rgb(244,130,32)" stroke="none" d="M 1263,1104 L 1353,1104 1353,571 1263,571 1263,1104 Z"/>
         <path fill="rgb(243,118,33)" stroke="none" d="M 1301,1104 L 1391,1104 1391,571 1301,571 1301,1104 Z"/>
         <path fill="rgb(242,106,34)" stroke="none" d="M 1338,1104 L 1428,1104 1428,571 1338,571 1338,1104 Z"/>
         <path fill="rgb(241,94,35)" stroke="none" d="M 1375,1104 L 1465,1104 1465,571 1375,571 1375,1104 Z"/>
         <path fill="rgb(240,82,36)" stroke="none" d="M 1412,1104 L 1502,1104 1502,571 1412,571 1412,1104 Z"/>
         <path fill="rgb(238,70,36)" stroke="none" d="M 1449,1104 L 1540,1104 1540,571 1449,571 1449,1104 Z"/>
         <path fill="rgb(237,58,37)" stroke="none" d="M 1487,1104 L 1577,1104 1577,571 1487,571 1487,1104 Z"/>
         <path fill="rgb(236,46,38)" stroke="none" d="M 1524,1104 L 1614,1104 1614,571 1524,571 1524,1104 Z"/>
         <path fill="rgb(235,34,39)" stroke="none" d="M 1561,1104 L 1651,1104 1651,571 1561,571 1561,1104 Z"/>
         <path fill="rgb(232,34,39)" stroke="none" d="M 1598,1104 L 1688,1104 1688,571 1598,571 1598,1104 Z"/>
         <path fill="rgb(229,33,39)" stroke="none" d="M 1636,1104 L 1726,1104 1726,571 1636,571 1636,1104 Z"/>
         <path fill="rgb(226,33,39)" stroke="none" d="M 1673,1104 L 1763,1104 1763,571 1673,571 1673,1104 Z"/>
         <path fill="rgb(224,33,39)" stroke="none" d="M 1710,1104 L 1800,1104 1800,571 1710,571 1710,1104 Z"/>
         <path fill="rgb(221,33,39)" stroke="none" d="M 1747,1104 L 1837,1104 1837,571 1747,571 1747,1104 Z"/>
         <path fill="rgb(218,32,39)" stroke="none" d="M 1784,1104 L 1874,1104 1874,571 1784,571 1784,1104 Z"/>
        </g>
        <g clip-path="url(#clip_path_1)"/>
        <defs>
         <clipPath id="clip_path_7" clipPathUnits="userSpaceOnUse">
          <path d="M 1399,894 C 1399,894 1572,734 1703,549 1703,549 1719,530 1706,506 1691,479 1621,386 1621,386 1621,386 1607,363 1593,382 1593,382 1445,597 1301,734 1282,752 1224,809 1194,834 1181,845 1170,858 1190,862 1210,866 1399,894 1399,894 L 1399,894 Z"/>
         </clipPath>
        </defs>
        <g clip-path="url(#clip_path_7)">
         <path fill="rgb(254,221,16)" stroke="none" d="M 1153,894 L 1206,894 1206,375 1153,375 1153,894 Z"/>
         <path fill="rgb(254,221,16)" stroke="none" d="M 1153,894 L 1247,894 1247,375 1153,375 1153,894 Z"/>
         <path fill="rgb(251,209,18)" stroke="none" d="M 1194,894 L 1288,894 1288,375 1194,375 1194,894 Z"/>
         <path fill="rgb(248,198,20)" stroke="none" d="M 1235,894 L 1328,894 1328,375 1235,375 1235,894 Z"/>
         <path fill="rgb(244,186,22)" stroke="none" d="M 1276,894 L 1369,894 1369,375 1276,375 1276,894 Z"/>
         <path fill="rgb(241,175,24)" stroke="none" d="M 1316,894 L 1410,894 1410,375 1316,375 1316,894 Z"/>
         <path fill="rgb(238,163,26)" stroke="none" d="M 1357,894 L 1451,894 1451,375 1357,375 1357,894 Z"/>
         <path fill="rgb(235,152,28)" stroke="none" d="M 1398,894 L 1492,894 1492,375 1398,375 1398,894 Z"/>
         <path fill="rgb(232,140,30)" stroke="none" d="M 1439,894 L 1533,894 1533,375 1439,375 1439,894 Z"/>
         <path fill="rgb(229,129,32)" stroke="none" d="M 1480,894 L 1574,894 1574,375 1480,375 1480,894 Z"/>
         <path fill="rgb(225,117,34)" stroke="none" d="M 1521,894 L 1615,894 1615,375 1521,375 1521,894 Z"/>
         <path fill="rgb(222,106,36)" stroke="none" d="M 1562,894 L 1656,894 1656,375 1562,375 1562,894 Z"/>
         <path fill="rgb(219,94,38)" stroke="none" d="M 1603,894 L 1737,894 1737,375 1603,375 1603,894 Z"/>
        </g>
        <g clip-path="url(#clip_path_1)"/>
        <defs>
         <clipPath id="clip_path_8" clipPathUnits="userSpaceOnUse">
          <path d="M 1276,701 C 1276,701 1438,540 1557,358 1557,358 1572,339 1557,317 1541,294 1467,212 1467,212 1467,212 1451,191 1438,210 1438,210 1305,421 1170,559 1152,577 1098,634 1069,660 1057,671 1047,683 1067,686 1087,689 1276,701 1276,701 L 1276,701 Z"/>
         </clipPath>
        </defs>
        <g clip-path="url(#clip_path_8)">
         <path fill="rgb(190,213,48)" stroke="none" d="M 1029,702 L 1121,702 1121,202 1029,202 1029,702 Z"/>
         <path fill="rgb(176,207,49)" stroke="none" d="M 1068,702 L 1160,702 1160,202 1068,202 1068,702 Z"/>
         <path fill="rgb(162,201,51)" stroke="none" d="M 1108,702 L 1199,702 1199,202 1108,202 1108,702 Z"/>
         <path fill="rgb(148,195,52)" stroke="none" d="M 1147,702 L 1239,702 1239,202 1147,202 1147,702 Z"/>
         <path fill="rgb(134,189,54)" stroke="none" d="M 1186,702 L 1278,702 1278,202 1186,202 1186,702 Z"/>
         <path fill="rgb(120,183,55)" stroke="none" d="M 1225,702 L 1317,702 1317,202 1225,202 1225,702 Z"/>
         <path fill="rgb(106,177,57)" stroke="none" d="M 1264,702 L 1356,702 1356,202 1264,202 1264,702 Z"/>
         <path fill="rgb(93,172,58)" stroke="none" d="M 1303,702 L 1395,702 1395,202 1303,202 1303,702 Z"/>
         <path fill="rgb(79,166,60)" stroke="none" d="M 1342,702 L 1434,702 1434,202 1342,202 1342,702 Z"/>
         <path fill="rgb(65,160,61)" stroke="none" d="M 1381,702 L 1473,702 1473,202 1381,202 1381,702 Z"/>
         <path fill="rgb(51,154,63)" stroke="none" d="M 1420,702 L 1512,702 1512,202 1420,202 1420,702 Z"/>
         <path fill="rgb(37,148,64)" stroke="none" d="M 1459,702 L 1551,702 1551,202 1459,202 1459,702 Z"/>
         <path fill="rgb(23,142,66)" stroke="none" d="M 1498,702 L 1590,702 1590,202 1498,202 1498,702 Z"/>
         <path fill="rgb(9,136,67)" stroke="none" d="M 1537,702 L 1590,702 1590,202 1537,202 1537,702 Z"/>
        </g>
        <g clip-path="url(#clip_path_1)"/>
        <defs>
         <clipPath id="clip_path_9" clipPathUnits="userSpaceOnUse">
          <path d="M 1142,533 C 1142,533 1288,368 1392,187 1392,187 1405,168 1390,149 1372,127 1295,55 1295,55 1295,55 1279,36 1268,54 1268,54 1152,264 1030,405 1014,423 965,481 939,508 927,519 919,531 938,533 958,534 1142,533 1142,533 L 1142,533 Z"/>
         </clipPath>
        </defs>
        <g clip-path="url(#clip_path_9)">
         <path fill="rgb(97,194,172)" stroke="none" d="M 901,533 L 952,533 952,46 901,46 901,533 Z"/>
         <path fill="rgb(97,194,172)" stroke="none" d="M 901,533 L 992,533 992,46 901,46 901,533 Z"/>
         <path fill="rgb(89,187,170)" stroke="none" d="M 940,533 L 1031,533 1031,46 940,46 940,533 Z"/>
         <path fill="rgb(81,181,168)" stroke="none" d="M 980,533 L 1070,533 1070,46 980,46 980,533 Z"/>
         <path fill="rgb(73,174,167)" stroke="none" d="M 1019,533 L 1109,533 1109,46 1019,46 1019,533 Z"/>
         <path fill="rgb(65,167,165)" stroke="none" d="M 1058,533 L 1148,533 1148,46 1058,46 1058,533 Z"/>
         <path fill="rgb(57,161,163)" stroke="none" d="M 1097,533 L 1188,533 1188,46 1097,46 1097,533 Z"/>
         <path fill="rgb(50,154,161)" stroke="none" d="M 1136,533 L 1227,533 1227,46 1136,46 1136,533 Z"/>
         <path fill="rgb(42,147,159)" stroke="none" d="M 1176,533 L 1266,533 1266,46 1176,46 1176,533 Z"/>
         <path fill="rgb(34,141,157)" stroke="none" d="M 1215,533 L 1305,533 1305,46 1215,46 1215,533 Z"/>
         <path fill="rgb(26,134,156)" stroke="none" d="M 1254,533 L 1344,533 1344,46 1254,46 1254,533 Z"/>
         <path fill="rgb(18,127,154)" stroke="none" d="M 1293,533 L 1384,533 1384,46 1293,46 1293,533 Z"/>
         <path fill="rgb(10,121,152)" stroke="none" d="M 1333,533 L 1423,533 1423,46 1333,46 1333,533 Z"/>
        </g>
        <g clip-path="url(#clip_path_1)"/>
        <defs>
         <clipPath id="clip_path_10" clipPathUnits="userSpaceOnUse">
          <path d="M 1509,1104 C 1509,1104 1694,946 1838,761 1838,761 1856,742 1844,716 1830,686 1766,585 1766,585 1766,585 1753,559 1738,578 1738,578 1575,794 1421,929 1400,946 1338,1003 1306,1027 1292,1037 1281,1050 1301,1056 1320,1062 1509,1104 1509,1104 L 1509,1104 Z"/>
         </clipPath>
        </defs>
        <g clip-path="url(#clip_path_10)">
         <path fill="rgb(255,255,255)" fill-opacity="0.502" stroke="rgb(255,255,255)" stroke-opacity="0.502" d="M 1013,408 C 1013,408 1625,261 1838,761 1861,816 1859,794 1859,794 1859,794 1900,658 1721,452 1543,246 1374,55 1298,38 1223,21 1155,181 1100,259 1044,337 1013,408 1013,408 L 1013,408 Z"/>
        </g>
        <g clip-path="url(#clip_path_1)"/>
        <defs>
         <clipPath id="clip_path_11" clipPathUnits="userSpaceOnUse">
          <path d="M 1399,894 C 1399,894 1572,734 1703,549 1703,549 1719,530 1706,506 1691,479 1621,386 1621,386 1621,386 1607,363 1593,382 1593,382 1445,597 1301,734 1282,752 1224,809 1194,834 1181,845 1170,858 1190,862 1210,866 1399,894 1399,894 L 1399,894 Z"/>
         </clipPath>
        </defs>
        <g clip-path="url(#clip_path_11)">
         <path fill="rgb(255,255,255)" fill-opacity="0.502" stroke="rgb(255,255,255)" stroke-opacity="0.502" d="M 1013,408 C 1013,408 1625,261 1838,761 1861,816 1859,794 1859,794 1859,794 1900,658 1721,452 1543,246 1374,55 1298,38 1223,21 1155,181 1100,259 1044,337 1013,408 1013,408 L 1013,408 Z"/>
        </g>
        <g clip-path="url(#clip_path_1)"/>
        <defs>
         <clipPath id="clip_path_12" clipPathUnits="userSpaceOnUse">
          <path d="M 1276,701 C 1276,701 1438,540 1557,358 1557,358 1572,339 1557,317 1541,294 1467,212 1467,212 1467,212 1451,191 1438,210 1438,210 1305,421 1170,559 1152,577 1098,634 1069,660 1057,671 1047,683 1067,686 1087,689 1276,701 1276,701 L 1276,701 Z"/>
         </clipPath>
        </defs>
        <g clip-path="url(#clip_path_12)">
         <path fill="rgb(255,255,255)" fill-opacity="0.502" stroke="rgb(255,255,255)" stroke-opacity="0.502" d="M 1013,408 C 1013,408 1625,261 1838,761 1861,816 1859,794 1859,794 1859,794 1900,658 1721,452 1543,246 1374,55 1298,38 1223,21 1155,181 1100,259 1044,337 1013,408 1013,408 L 1013,408 Z"/>
        </g>
        <g clip-path="url(#clip_path_1)"/>
        <defs>
         <clipPath id="clip_path_13" clipPathUnits="userSpaceOnUse">
          <path d="M 1142,533 C 1142,533 1288,368 1392,187 1392,187 1405,168 1390,149 1372,127 1295,55 1295,55 1295,55 1279,36 1268,54 1268,54 1152,264 1030,405 1014,423 965,481 939,508 927,519 919,531 938,533 958,534 1142,533 1142,533 L 1142,533 Z"/>
         </clipPath>
        </defs>
        <g clip-path="url(#clip_path_13)">
         <path fill="rgb(255,255,255)" fill-opacity="0.502" stroke="rgb(255,255,255)" stroke-opacity="0.502" d="M 1013,408 C 1013,408 1625,261 1838,761 1861,816 1859,794 1859,794 1859,794 1900,658 1721,452 1543,246 1374,55 1298,38 1223,21 1155,181 1100,259 1044,337 1013,408 1013,408 L 1013,408 Z"/>
        </g>
        <g clip-path="url(#clip_path_1)"/>
       </g>
      </g>
     </g>
    </g>
   </g>
  </g>
 </g>
</svg>