<?xml version="1.0" encoding="utf-8"?>
<svg viewBox="109.68 161.19 247.336 90.142" xmlns="http://www.w3.org/2000/svg">
  <g id="SVGRepo_bgCarrier" stroke-width="0" transform="matrix(5.329485, 0, 0, 5.329485, 69.261093, 150.966232)" style=""/>
  <g id="SVGRepo_tracerCarrier" stroke-linecap="round" stroke-linejoin="round" transform="matrix(5.329485, 0, 0, 5.329485, 69.261093, 150.966232)" style=""/>
  <g id="SVGRepo_iconCarrier" transform="matrix(4.247114, 0, 0, 4.247114, 97.56926, 154.657394)" style="">
    <path d="M15 10L11 14L9 12M4 5V12.0557C4 15.0859 5.71202 17.856 8.42229 19.2111L12 21L15.5777 19.2111C18.288 17.856 20 15.0859 20 12.0557V5L19.303 5.07744C16.8542 5.34953 14.3912 4.70802 12.3863 3.27594L12 3L11.6137 3.27594C9.60878 4.70802 7.14576 5.34953 4.69699 5.07744L4 5Z" stroke="#59c378" stroke-width="2" stroke-linecap="round" stroke-linejoin="round" style="fill-opacity: 0;"/>
  </g>
  <text style="fill: rgb(51, 51, 51); font-family: Inter; font-size: 42px; white-space: pre;" x="196.714" y="204.93">20+</text>
  <text style="fill: rgb(122, 119, 119); font-family: Inter; font-size: 19px; white-space: pre;" x="201.155" y="232.905">Complete Project</text>
</svg>