<svg viewBox="0 0 496 284" fill="none" xmlns="http://www.w3.org/2000/svg"><g clip-path="url(#clip0)"><path d="M427.114 173.865C426.314 254.249 454.308 279.144 476.604 282.743C494.4 285.742 500.299 277.444 492.701 274.945C474.704 269.146 464.106 251.049 460.107 218.356C458.108 201.559 456.408 183.363 458.008 158.468C461.107 111.278 470.905 65.3868 473.405 53.9891C477.504 35.1929 472.005 28.0943 463.906 27.3945C460.407 27.0945 452.309 27.9944 447.31 37.7924C441.811 48.3902 433.913 90.3818 426.514 120.076C424.314 128.874 421.915 137.872 418.616 147.27C403.919 188.062 379.923 229.754 368.026 229.754C356.528 229.754 356.028 201.759 356.028 171.665C355.928 89.6819 375.224 44.491 382.723 18.7962C385.322 9.99799 384.922 0.499907 374.824 8.22032e-06C367.026 -0.399911 360.627 2.89942 354.129 14.1971C347.63 25.2949 343.231 37.3925 341.331 43.8912C329.734 83.6831 321.435 120.676 321.435 171.765C321.435 230.154 330.633 263.747 355.428 263.747C389.222 263.847 417.916 201.859 427.114 173.865Z" fill="#1D8295"></path><path d="M94.5809 37.7924H4.79903C2.19956 37.7924 0 39.9919 0 42.6914V184.163C0 186.862 2.19956 188.962 4.79903 188.962H13.0974C15.6968 188.962 17.8964 186.662 17.8964 184.163V126.574H83.4832C86.0826 126.574 88.2822 124.275 88.2822 121.675V115.477C88.2822 112.877 85.9827 110.678 83.4832 110.678H17.9964V53.6892H94.5809C97.2804 53.6892 99.38 51.4896 99.38 48.8902V42.6914C99.4799 39.9919 97.2804 37.7924 94.5809 37.7924Z" fill="#0F0F0F"></path><path d="M301.639 39.592C300.739 38.4922 299.34 37.7924 297.64 37.7924H288.642C286.442 37.7924 284.543 39.592 284.043 41.3917L255.249 150.97L219.856 40.6918C219.256 38.9921 217.456 37.7924 215.457 37.7924H210.358C208.258 37.7924 206.558 38.8922 205.958 40.6918L171.265 150.97L141.871 41.3917C141.371 39.692 139.372 37.7924 137.272 37.7924H128.274C126.574 37.7924 125.175 38.3923 124.275 39.592C123.375 40.6918 123.175 42.2915 123.675 43.9911L163.467 185.463C163.967 187.462 165.967 189.062 168.066 189.062H172.765C174.465 189.062 176.664 187.862 177.164 186.162L212.657 73.2852L248.85 186.162C249.45 187.862 251.449 188.962 253.149 188.962H257.848C259.948 188.962 261.947 187.462 262.447 185.363L302.239 43.8912C302.639 42.2915 302.439 40.6918 301.639 39.592Z" fill="#0F0F0F"></path><path d="M20.9958 219.356H1.59968C0.699859 219.356 0 220.056 0 220.956V253.549C0 254.449 0.699859 255.149 1.59968 255.149H3.49929C4.29913 255.149 5.09897 254.449 5.09897 253.549V240.752H18.5962C19.3961 240.752 20.1959 240.052 20.1959 239.152V237.752C20.1959 236.952 19.4961 236.152 18.5962 236.152H5.09897V223.955H20.9958C21.8956 223.955 22.5954 223.255 22.5954 222.355V220.956C22.5954 220.056 21.8956 219.356 20.9958 219.356Z" fill="#0F0F0F"></path><path d="M51.8895 218.856C41.7916 218.856 33.5932 227.154 33.5932 237.252C33.5932 247.55 41.6916 255.548 51.8895 255.548C62.1875 255.548 70.2858 247.45 70.2858 237.252C70.2858 227.154 62.0875 218.856 51.8895 218.856ZM65.5868 237.252C65.5868 244.751 59.488 250.849 51.9895 250.849C44.491 250.849 38.3923 244.751 38.3923 237.252C38.3923 229.654 44.491 223.555 51.9895 223.555C59.388 223.555 65.5868 229.754 65.5868 237.252Z" fill="#0F0F0F"></path><path d="M109.878 230.453C109.878 224.355 104.779 219.256 98.4801 219.256H85.6827C84.7829 219.256 84.083 219.956 84.083 220.855V253.449C84.083 254.349 84.7829 255.049 85.6827 255.049H87.5823C88.4822 255.049 89.182 254.349 89.182 253.449V241.551H97.5803L103.779 253.949C104.079 254.449 104.479 255.049 105.479 255.049H107.878C108.478 255.049 108.978 254.749 109.278 254.349C109.578 253.849 109.578 253.249 109.278 252.749L102.879 240.851C107.078 238.852 109.878 234.853 109.878 230.453ZM104.679 230.553C104.679 234.153 101.779 237.052 98.2802 237.052H89.382V224.255H98.2802C101.58 224.255 104.679 227.154 104.679 230.553Z" fill="#0F0F0F"></path><path d="M163.367 219.356H161.267C160.568 219.356 159.968 219.856 159.768 220.556L153.069 244.251L145.271 219.856C145.071 219.256 144.471 218.856 143.771 218.856H142.971C142.271 218.856 141.671 219.256 141.471 219.856L133.773 244.251L127.374 220.556C127.174 219.856 126.574 219.356 125.875 219.356H124.275C123.775 219.356 123.275 219.556 122.975 219.956C122.675 220.356 122.575 220.855 122.775 221.355L131.573 254.449C131.773 255.149 132.373 255.648 133.073 255.648H133.873C134.473 255.648 135.073 255.248 135.373 254.649L143.271 229.554L151.369 254.749C151.669 255.248 152.169 255.648 152.769 255.648H153.569C154.269 255.648 154.869 255.149 155.069 254.449L164.867 221.355C165.067 220.855 164.967 220.356 164.667 219.956C164.467 219.556 163.967 219.356 163.367 219.356Z" fill="#0F0F0F"></path><path d="M189.562 219.756C189.262 219.156 188.762 218.856 188.162 218.856H187.662C187.262 218.856 186.662 218.956 186.262 219.756L171.265 252.949C171.066 253.449 171.065 254.049 171.365 254.449C171.665 254.849 172.165 255.149 172.765 255.149H174.765C175.465 255.149 176.064 254.649 176.164 254.249L179.564 246.45H196.26L199.76 254.149C199.96 254.649 200.46 255.049 201.159 255.049H203.159C203.759 255.049 204.259 254.749 204.559 254.349C204.859 253.949 204.859 253.349 204.659 252.849L189.562 219.756ZM194.261 242.151H181.463L187.862 227.754C188.962 230.154 190.062 232.653 191.161 235.153L194.261 242.151Z" fill="#0F0F0F"></path><path d="M242.751 230.453C242.751 224.355 237.652 219.256 231.353 219.256H218.556C217.656 219.256 216.956 219.956 216.956 220.855V253.449C216.956 254.349 217.656 255.049 218.556 255.049H220.456C221.355 255.049 222.055 254.349 222.055 253.449V241.551H230.454L236.652 253.949C236.952 254.449 237.352 255.049 238.352 255.049H240.751C241.351 255.049 241.851 254.749 242.151 254.349C242.451 253.849 242.451 253.249 242.151 252.749L235.752 240.851C240.052 238.852 242.751 234.853 242.751 230.453ZM237.552 230.553C237.552 234.153 234.653 237.052 231.053 237.052H222.155V224.255H231.053C234.553 224.255 237.552 227.154 237.552 230.553Z" fill="#0F0F0F"></path><path d="M270.246 219.356H259.248C258.448 219.356 257.748 220.056 257.748 220.955V253.549C257.748 254.449 258.448 255.149 259.248 255.149H270.246C280.144 255.149 288.142 247.05 288.142 237.252C288.242 227.354 280.144 219.356 270.246 219.356ZM282.943 237.152C282.943 244.951 277.544 250.449 269.846 250.449H262.747V223.955H269.846C277.544 223.955 282.943 229.454 282.943 237.152Z" fill="#0F0F0F"></path></g></svg>
